<svg xmlns="http://www.w3.org/2000/svg" viewBox="0 0 254 150" width="254" height="150">
	<defs>
		<clipPath clipPathUnits="userSpaceOnUse" id="cp1">
			<path d="M0 -88.5L254 -88.5L254 238.5L0 238.5L0 -88.5Z" />
		</clipPath>
		<linearGradient id="grd1" gradientUnits="userSpaceOnUse"  x1="149.845" y1="8.031" x2="126.436" y2="42.84">
			<stop offset="0" stop-color="#102694"  />
			<stop offset="0.18" stop-color="#102694"  />
			<stop offset="0.36" stop-color="#00b9f2"  />
			<stop offset="0.49" stop-color="#00ab4f"  />
			<stop offset="0.62" stop-color="#ff2e17"  />
			<stop offset="0.73" stop-color="#ff7d24"  />
			<stop offset="1" stop-color="#ffeb3d"  />
		</linearGradient>
		<linearGradient id="grd2" gradientUnits="userSpaceOnUse"  x1="149.559" y1="15.177" x2="129.719" y2="44.69">
			<stop offset="0" stop-color="#102694"  />
			<stop offset="0.18" stop-color="#102694"  />
			<stop offset="0.36" stop-color="#00b9f2"  />
			<stop offset="0.49" stop-color="#00ab4f"  />
			<stop offset="0.62" stop-color="#ff2e17"  />
			<stop offset="0.73" stop-color="#ff7d24"  />
			<stop offset="1" stop-color="#ffeb3d"  />
		</linearGradient>
		<linearGradient id="grd3" gradientUnits="userSpaceOnUse"  x1="148.649" y1="21.458" x2="131.904" y2="46.364">
			<stop offset="0" stop-color="#102694"  />
			<stop offset="0.18" stop-color="#102694"  />
			<stop offset="0.36" stop-color="#00b9f2"  />
			<stop offset="0.49" stop-color="#00ab4f"  />
			<stop offset="0.62" stop-color="#ff2e17"  />
			<stop offset="0.73" stop-color="#ff7d24"  />
			<stop offset="1" stop-color="#ffeb3d"  />
		</linearGradient>
		<linearGradient id="grd4" gradientUnits="userSpaceOnUse"  x1="147.149" y1="27.432" x2="133.593" y2="47.592">
			<stop offset="0" stop-color="#102694"  />
			<stop offset="0.18" stop-color="#102694"  />
			<stop offset="0.36" stop-color="#00b9f2"  />
			<stop offset="0.49" stop-color="#00ab4f"  />
			<stop offset="0.62" stop-color="#ff2e17"  />
			<stop offset="0.73" stop-color="#ff7d24"  />
			<stop offset="1" stop-color="#ffeb3d"  />
		</linearGradient>
		<linearGradient id="grd5" gradientUnits="userSpaceOnUse"  x1="145.921" y1="32.626" x2="131.071" y2="54.704">
			<stop offset="0" stop-color="#102694"  />
			<stop offset="0.18" stop-color="#102694"  />
			<stop offset="0.36" stop-color="#00b9f2"  />
			<stop offset="0.49" stop-color="#00ab4f"  />
			<stop offset="0.62" stop-color="#ff2e17"  />
			<stop offset="0.73" stop-color="#ff7d24"  />
			<stop offset="1" stop-color="#ffeb3d"  />
		</linearGradient>
		<linearGradient id="grd6" gradientUnits="userSpaceOnUse"  x1="143.048" y1="36.858" x2="130.366" y2="55.715">
			<stop offset="0" stop-color="#102694"  />
			<stop offset="0.18" stop-color="#102694"  />
			<stop offset="0.36" stop-color="#00b9f2"  />
			<stop offset="0.49" stop-color="#00ab4f"  />
			<stop offset="0.62" stop-color="#ff2e17"  />
			<stop offset="0.73" stop-color="#ff7d24"  />
			<stop offset="1" stop-color="#ffeb3d"  />
		</linearGradient>
		<linearGradient id="grd7" gradientUnits="userSpaceOnUse"  x1="139.602" y1="43.256" x2="129.858" y2="57.745">
			<stop offset="0" stop-color="#102694"  />
			<stop offset="0.18" stop-color="#102694"  />
			<stop offset="0.36" stop-color="#00b9f2"  />
			<stop offset="0.49" stop-color="#00ab4f"  />
			<stop offset="0.62" stop-color="#ff2e17"  />
			<stop offset="0.73" stop-color="#ff7d24"  />
			<stop offset="1" stop-color="#ffeb3d"  />
		</linearGradient>
		<linearGradient id="grd8" gradientUnits="userSpaceOnUse"  x1="137.831" y1="45.525" x2="127.451" y2="60.963">
			<stop offset="0" stop-color="#102694"  />
			<stop offset="0.18" stop-color="#102694"  />
			<stop offset="0.36" stop-color="#00b9f2"  />
			<stop offset="0.49" stop-color="#00ab4f"  />
			<stop offset="0.62" stop-color="#ff2e17"  />
			<stop offset="0.73" stop-color="#ff7d24"  />
			<stop offset="1" stop-color="#ffeb3d"  />
		</linearGradient>
		<linearGradient id="grd9" gradientUnits="userSpaceOnUse"  x1="135.971" y1="46.878" x2="125.162" y2="62.955">
			<stop offset="0" stop-color="#102694"  />
			<stop offset="0.18" stop-color="#102694"  />
			<stop offset="0.36" stop-color="#00b9f2"  />
			<stop offset="0.49" stop-color="#00ab4f"  />
			<stop offset="0.62" stop-color="#ff2e17"  />
			<stop offset="0.73" stop-color="#ff7d24"  />
			<stop offset="1" stop-color="#ffeb3d"  />
		</linearGradient>
		<linearGradient id="grd10" gradientUnits="userSpaceOnUse"  x1="146.791" y1="64.656" x2="134.694" y2="82.65">
			<stop offset="0" stop-color="#102694"  />
			<stop offset="0.18" stop-color="#102694"  />
			<stop offset="0.36" stop-color="#00b9f2"  />
			<stop offset="0.49" stop-color="#00ab4f"  />
			<stop offset="0.62" stop-color="#ff2e17"  />
			<stop offset="0.73" stop-color="#ff7d24"  />
			<stop offset="1" stop-color="#ffeb3d"  />
		</linearGradient>
		<linearGradient id="grd11" gradientUnits="userSpaceOnUse"  x1="139.476" y1="56.196" x2="116.814" y2="89.901">
			<stop offset="0" stop-color="#102694"  />
			<stop offset="0.18" stop-color="#102694"  />
			<stop offset="0.36" stop-color="#00b9f2"  />
			<stop offset="0.49" stop-color="#00ab4f"  />
			<stop offset="0.62" stop-color="#ff2e17"  />
			<stop offset="0.73" stop-color="#ff7d24"  />
			<stop offset="1" stop-color="#ffeb3d"  />
		</linearGradient>
		<linearGradient id="grd12" gradientUnits="userSpaceOnUse"  x1="118.653" y1="32.541" x2="89.656" y2="75.662">
			<stop offset="0" stop-color="#102694"  />
			<stop offset="0.18" stop-color="#102694"  />
			<stop offset="0.36" stop-color="#00b9f2"  />
			<stop offset="0.49" stop-color="#00ab4f"  />
			<stop offset="0.62" stop-color="#ff2e17"  />
			<stop offset="0.73" stop-color="#ff7d24"  />
			<stop offset="1" stop-color="#ffeb3d"  />
		</linearGradient>
		<linearGradient id="grd13" gradientUnits="userSpaceOnUse"  x1="135.506" y1="81.547" x2="126.728" y2="94.6">
			<stop offset="0" stop-color="#102694"  />
			<stop offset="0.18" stop-color="#102694"  />
			<stop offset="0.36" stop-color="#00b9f2"  />
			<stop offset="0.49" stop-color="#00ab4f"  />
			<stop offset="0.62" stop-color="#ff2e17"  />
			<stop offset="0.73" stop-color="#ff7d24"  />
			<stop offset="1" stop-color="#ffeb3d"  />
		</linearGradient>
		<linearGradient id="grd14" gradientUnits="userSpaceOnUse"  x1="137.841" y1="83.759" x2="125.751" y2="101.739">
			<stop offset="0" stop-color="#102694"  />
			<stop offset="0.18" stop-color="#102694"  />
			<stop offset="0.36" stop-color="#00b9f2"  />
			<stop offset="0.49" stop-color="#00ab4f"  />
			<stop offset="0.62" stop-color="#ff2e17"  />
			<stop offset="0.73" stop-color="#ff7d24"  />
			<stop offset="1" stop-color="#ffeb3d"  />
		</linearGradient>
		<linearGradient id="grd15" gradientUnits="userSpaceOnUse"  x1="143.307" y1="90.341" x2="134.579" y2="103.324">
			<stop offset="0" stop-color="#102694"  />
			<stop offset="0.18" stop-color="#102694"  />
			<stop offset="0.36" stop-color="#00b9f2"  />
			<stop offset="0.49" stop-color="#00ab4f"  />
			<stop offset="0.62" stop-color="#ff2e17"  />
			<stop offset="0.73" stop-color="#ff7d24"  />
			<stop offset="1" stop-color="#ffeb3d"  />
		</linearGradient>
	</defs>
	<style>
		tspan { white-space:pre }
		.shp0 { fill: #595b61 } 
		.shp1 { fill: #6f7176 } 
		.shp2 { fill: none;stroke: #595b61;stroke-linecap:round;stroke-linejoin:round;stroke-width: 0.872 } 
		.shp3 { fill: none;stroke: #595b61;stroke-linecap:round;stroke-linejoin:round;stroke-width: 0.874 } 
		.shp4 { fill: none;stroke: #595b61;stroke-linecap:round;stroke-linejoin:round;stroke-width: 0.868 } 
		.shp5 { fill: url(#grd1) } 
		.shp6 { fill: url(#grd2) } 
		.shp7 { fill: url(#grd3) } 
		.shp8 { fill: url(#grd4) } 
		.shp9 { fill: url(#grd5) } 
		.shp10 { fill: url(#grd6) } 
		.shp11 { fill: url(#grd7) } 
		.shp12 { fill: url(#grd8) } 
		.shp13 { fill: url(#grd9) } 
		.shp14 { fill: url(#grd10) } 
		.shp15 { fill: url(#grd11) } 
		.shp16 { fill: url(#grd12) } 
		.shp17 { fill: url(#grd13) } 
		.shp18 { fill: url(#grd14) } 
		.shp19 { fill: url(#grd15) } 
	</style>
	<g id="Clip-Path: Page 1" clip-path="url(#cp1)">
		<g id="Page 1">
			<path id="Path 1" fill-rule="evenodd" class="shp0" d="M48.46 118.74C48.46 117.47 48.35 116.02 48.29 115.2C48.91 115.29 49.55 115.34 50.23 115.34C51.07 115.34 51.79 115.25 52.11 115.2C51.96 117.33 51.96 118.74 51.96 121.55C53.05 121.6 53.94 121.62 54.87 121.62C55.76 121.62 56.69 121.62 57.86 121.55L57.86 118.64C57.86 117.69 57.79 116.1 57.7 115.2C58.13 115.25 59.02 115.34 59.67 115.34C60.36 115.34 61.25 115.25 61.56 115.2C61.37 117.16 61.37 121.78 61.37 124.03C61.37 126.81 61.37 129.15 61.58 131.06C60.94 130.97 60.3 130.92 59.68 130.92C59.01 130.92 58.31 130.97 57.65 131.06C57.74 130.48 57.86 129.59 57.86 127.92L57.86 123.5C56.98 123.45 55.97 123.42 54.86 123.42C53.78 123.42 52.71 123.45 51.96 123.5L51.96 128.31C51.96 129.27 52.03 130.45 52.09 131.06C51.72 131.01 50.95 130.92 50.21 130.92C49.75 130.92 48.89 130.97 48.28 131.06C48.38 129.91 48.46 128.87 48.46 126.94L48.46 118.74ZM64.76 119.18C64.76 117.87 64.67 116.01 64.57 115.2C65.38 115.29 66.01 115.34 66.57 115.34C67.21 115.34 67.92 115.32 68.47 115.2C68.26 117.03 68.2 121.05 68.2 123.02C68.2 125.61 68.41 126.82 68.78 127.6C69.27 128.63 70.41 129.28 71.65 129.28C72.73 129.28 74.34 128.76 74.89 126.6C75.18 125.48 75.19 124.08 75.19 122.06L75.19 119.31C75.19 117.42 75.18 116.85 75.01 115.2C75.39 115.29 75.91 115.34 76.34 115.34C76.77 115.34 77.24 115.27 77.55 115.2C77.24 117.16 77.16 121.5 77.16 123.72C77.16 125.95 77.06 128.72 74.47 130.41C73.51 131.06 72.31 131.3 70.97 131.3C69.03 131.3 67.05 130.89 65.95 129.41C64.76 127.78 64.76 126.14 64.76 125.13L64.76 119.18ZM96.2 125.64C96.38 127.44 96.64 129.27 96.96 131.06C96.29 130.94 95.75 130.89 95.08 130.89C94.16 130.89 93.69 130.97 93.09 131.06C93.06 130.02 93.03 128.81 92.76 126.07C92.67 125.18 92.31 121.31 92.25 120.5C90.82 123.72 90.67 124.13 89.29 127.71C88.49 129.81 88.39 130.11 88.07 131.06C87.94 131.02 87.67 130.98 87.34 130.98C86.98 130.98 86.75 131.01 86.57 131.06C86.36 130.29 86.13 129.5 85.4 127.6C84.47 125.25 83.52 122.9 82.54 120.57C82.26 122.81 81.99 125.07 81.82 127.31C81.75 128.49 81.64 129.72 81.64 131.06C81.26 130.97 80.89 130.92 80.53 130.92C80.17 130.92 79.76 130.98 79.37 131.06C79.55 130.16 79.72 129.28 79.84 128.35L81.26 117.85C81.39 116.98 81.48 116.1 81.49 115.2C81.91 115.27 82.59 115.34 82.99 115.34C83.43 115.34 83.97 115.25 84.36 115.2C84.81 116.91 87.4 123.77 88.28 125.81C89.44 123.1 90.55 120.39 91.59 117.65C92.09 116.34 92.21 115.91 92.4 115.2C92.9 115.32 93.39 115.34 93.89 115.34C94.43 115.34 94.75 115.29 95.17 115.2C95.24 116.07 95.32 117.34 95.41 118.17L96.2 125.64ZM115.68 125.64C115.88 127.44 116.12 129.27 116.43 131.06C115.77 130.94 115.23 130.89 114.56 130.89C113.64 130.89 113.17 130.97 112.57 131.06C112.56 130.02 112.51 128.81 112.24 126.07C112.15 125.18 111.79 121.31 111.73 120.5C110.3 123.72 110.15 124.13 108.77 127.71C107.97 129.81 107.87 130.11 107.55 131.06C107.42 131.02 107.15 130.98 106.82 130.98C106.47 130.98 106.23 131.01 106.05 131.06C105.84 130.29 105.61 129.5 104.88 127.6C103.94 125.25 103 122.9 102.02 120.57C101.74 122.81 101.46 125.07 101.3 127.31C101.22 128.49 101.12 129.72 101.12 131.06C100.74 130.97 100.37 130.92 100.01 130.92C99.65 130.92 99.24 130.98 98.85 131.06C99.03 130.16 99.2 129.28 99.32 128.35L100.74 117.85C100.86 116.98 100.95 116.1 100.97 115.2C101.39 115.27 102.07 115.34 102.49 115.34C102.91 115.34 103.45 115.25 103.84 115.2C104.29 116.91 106.88 123.77 107.76 125.81C108.92 123.1 110.03 120.39 111.07 117.65C111.56 116.34 111.68 115.91 111.9 115.2C112.39 115.32 112.89 115.34 113.37 115.34C113.91 115.34 114.22 115.29 114.66 115.2C114.72 116.07 114.8 117.34 114.89 118.17L115.68 125.64ZM122.76 131.06C122.13 130.97 121.57 130.92 120.88 130.92C120.25 130.92 119.59 130.97 118.94 131.06C119.15 129.05 119.15 123.9 119.15 122.81C119.15 120.44 119.14 117.47 118.97 115.2C119.53 115.29 120.16 115.34 120.91 115.34C121.75 115.34 122.49 115.25 122.79 115.2C122.64 117.81 122.58 120.87 122.58 123.47C122.58 125.64 122.58 129.05 122.76 131.06ZM136.86 120.54C136.86 120.12 136.75 116.37 136.59 115.2C136.92 115.29 137.42 115.34 137.75 115.34C138.12 115.34 138.48 115.29 138.86 115.2C138.57 117.16 138.48 123.59 138.48 126.12C138.48 127.75 138.48 129.44 138.65 131.06C138.23 130.98 137.85 130.92 137.43 130.92C137.01 130.92 136.6 130.97 136.24 131.06C135.58 130.05 135.33 129.72 133.12 126.85L127.84 120.27L127.84 125.98C127.84 127 128.01 130.09 128.08 131.06C127.72 130.98 127.35 130.92 126.97 130.92C126.56 130.92 126.29 130.98 125.9 131.06C126.2 126.85 126.2 125.85 126.2 122.07C126.2 117.96 126.2 116.82 126.07 115.2C126.53 115.27 127 115.34 127.45 115.34C127.86 115.34 128.28 115.27 128.67 115.2C130.68 118.13 135.13 123.63 136.86 125.73L136.86 120.54ZM153.92 119.01C153.62 118.43 152.63 116.53 150.1 116.53C147.34 116.53 145.07 118.74 145.07 123.18C145.07 127.08 146.78 129.75 149.71 129.75C150.37 129.75 151.03 129.63 151.68 129.44C151.69 128.75 151.71 128.09 151.71 127.4C151.71 126.18 151.63 124.98 151.48 123.77C152.14 123.89 152.81 123.9 153.5 123.9C154.11 123.9 154.58 123.89 155.29 123.77C155.21 124.23 155.11 125.41 155.11 126.52C155.11 127.14 155.11 128.84 155.24 130.2C153.26 130.75 151.24 131.32 149.21 131.32C144.54 131.32 141.31 128.06 141.31 123.28C141.31 119.13 143.79 114.91 149.91 114.91C151.56 114.91 153.47 115.27 155 116.23C154.52 117.42 154.35 118.29 154.25 118.95L153.92 119.01ZM164.47 122.59C165.3 122.76 168 123.27 168 126.56C168 129.31 165.87 131.06 162.88 131.06C162.32 131.06 160.67 130.92 159.81 130.92C159.15 130.92 158.44 130.98 157.74 131.06C157.87 129.15 157.9 126.69 157.9 124.71C157.9 122.5 157.9 120.3 157.84 118.11C157.81 116.64 157.72 115.89 157.66 115.2C158.13 115.32 158.79 115.34 159.43 115.34C160.44 115.34 161.81 115.2 163.15 115.2C165.63 115.2 167.62 116.49 167.62 118.95C167.62 121.65 165.36 122.27 164.47 122.49L164.47 122.59ZM161.31 121.97C161.46 121.98 161.58 121.98 161.72 121.98C162.92 121.98 164.14 121.27 164.14 119.27C164.14 117.5 163.37 116.69 161.79 116.69C161.66 116.69 161.54 116.69 161.33 116.72C161.33 116.98 161.31 118.31 161.31 118.6L161.31 121.97ZM161.31 123.47C161.31 127.19 161.31 127.95 161.36 129.44C161.54 129.45 161.75 129.48 161.97 129.48C163.64 129.48 164.35 128.1 164.35 126.39C164.35 123.99 163.24 123.47 161.31 123.47ZM174.36 131.06C173.71 130.97 173.16 130.92 172.48 130.92C171.83 130.92 171.17 130.97 170.54 131.06C170.74 129.05 170.74 123.9 170.74 122.81C170.74 120.44 170.72 117.47 170.56 115.2C171.11 115.29 171.76 115.34 172.49 115.34C173.34 115.34 174.09 115.25 174.37 115.2C174.22 117.81 174.16 120.87 174.16 123.47C174.16 125.64 174.16 129.05 174.36 131.06ZM184.77 123.27L187.98 128.87C188.31 129.44 189.04 130.55 189.46 130.92L189.4 131.06C188.7 130.94 187.98 130.92 187.25 130.92C186.37 130.92 185.87 130.97 185.09 131.06C185 130.84 184.65 129.93 183.89 128.66L181.08 123.84C181.06 123.81 181.05 123.8 181 123.8C180.97 123.8 180.97 123.85 180.97 123.93C180.97 126.07 181 127.34 181.05 129.02C181.06 129.7 181.06 130.4 181.14 131.06C180.57 130.97 179.9 130.92 179.3 130.92C178.76 130.92 177.95 130.98 177.42 131.06C177.62 128.95 177.59 126.81 177.59 122.22C177.59 118.68 177.59 116.55 177.42 115.2C178.34 115.29 179.17 115.34 179.68 115.34C180.96 115.34 182.26 115.2 183.54 115.2C184.28 115.2 188.04 115.2 188.04 119.27C188.04 121.98 185.95 123.1 184.77 123.27ZM180.97 122.53C181.14 122.55 181.35 122.55 181.6 122.55C182.35 122.55 184.49 122.55 184.49 119.52C184.49 116.91 182.99 116.77 181.8 116.77C181.53 116.77 181.29 116.77 181.02 116.82L180.97 122.53ZM191.21 119.61C191.21 118.16 191.15 116.67 191.01 115.2C191.64 115.29 192.29 115.34 192.92 115.34C194.51 115.34 196.08 115.2 197.67 115.2C201.61 115.2 204.69 117.77 204.69 122.84C204.69 127.29 202.16 131.06 196.95 131.06C196.23 131.06 194.12 130.92 193.57 130.92C193.19 130.92 191.97 130.94 191.01 131.06C191.13 129.54 191.21 128.04 191.21 126.52L191.21 119.61ZM194.63 127.56C194.63 128.13 194.66 128.72 194.68 129.28C194.93 129.34 195.35 129.41 196.05 129.41C197.2 129.41 198.56 129.15 199.53 128.01C200.86 126.44 200.98 123.65 200.98 122.81C200.98 121.41 200.75 119.2 199.4 117.9C198.33 116.86 197.23 116.85 196.35 116.85C195.29 116.85 194.95 116.86 194.69 116.9C194.69 117.38 194.63 119.16 194.63 119.93L194.63 127.56Z" />
			<path id="Path 2" fill-rule="evenodd" class="shp1" d="M98.8 138.87C98.8 138.62 98.74 136.35 98.64 135.66C98.83 135.7 99.14 135.73 99.33 135.73C99.56 135.73 99.78 135.7 100.01 135.66C99.84 136.83 99.78 140.72 99.78 142.25C99.78 143.23 99.78 144.24 99.89 145.22C99.63 145.17 99.41 145.13 99.15 145.13C98.89 145.13 98.65 145.16 98.43 145.22C98.02 144.6 97.89 144.42 96.55 142.68L93.36 138.7L93.36 142.16C93.36 142.77 93.45 144.63 93.51 145.22C93.29 145.17 93.06 145.13 92.84 145.13C92.58 145.13 92.43 145.17 92.19 145.22C92.37 142.68 92.37 142.08 92.37 139.8C92.37 137.32 92.37 136.63 92.3 135.66C92.58 135.69 92.85 135.73 93.12 135.73C93.38 135.73 93.62 135.69 93.86 135.66C95.08 137.41 97.75 140.73 98.8 142L98.8 138.87ZM102.02 138.05C102.02 137.27 101.96 136.14 101.9 135.66C102.38 135.7 102.77 135.73 103.1 135.73C103.49 135.73 103.91 135.72 104.26 135.66C104.12 136.75 104.09 139.19 104.09 140.37C104.09 141.93 104.22 142.66 104.44 143.13C104.74 143.76 105.43 144.15 106.17 144.15C106.82 144.15 107.79 143.84 108.12 142.53C108.3 141.85 108.32 141.02 108.32 139.78L108.32 138.13C108.32 137 108.3 136.65 108.2 135.66C108.42 135.7 108.75 135.73 108.99 135.73C109.27 135.73 109.55 135.69 109.73 135.66C109.55 136.83 109.49 139.45 109.49 140.79C109.49 142.14 109.43 143.81 107.88 144.82C107.3 145.22 106.57 145.37 105.76 145.37C104.59 145.37 103.4 145.11 102.74 144.23C102.02 143.25 102.02 142.25 102.02 141.65L102.02 138.05ZM112.99 136.83C112.41 136.83 111.61 136.84 110.68 136.97C110.74 136.73 110.74 136.5 110.74 136.26C110.74 136.05 110.72 135.84 110.68 135.66C111.31 135.73 112.57 135.77 114.04 135.77C115.59 135.77 116.6 135.73 117.41 135.66C117.37 135.9 117.34 136.11 117.34 136.32C117.34 136.53 117.38 136.81 117.41 136.97C116.67 136.86 115.88 136.83 115.17 136.83C115.16 137.44 115.16 138.38 115.16 139.43C115.16 140.23 115.14 141.96 115.14 142.88C115.14 143.7 115.16 144.45 115.23 145.22C114.87 145.16 114.35 145.13 114 145.13C113.64 145.13 113.22 145.17 112.89 145.22C113.01 144.57 113.01 142.84 113.01 142.08C113.01 140.34 113.01 138.5 112.99 136.83ZM122.88 140.52L124.81 143.9C125.02 144.24 125.47 144.91 125.71 145.13L125.68 145.22C125.24 145.14 124.81 145.13 124.37 145.13C123.84 145.13 123.54 145.16 123.08 145.22C123.02 145.09 122.81 144.54 122.34 143.76L120.66 140.87C120.64 140.85 120.63 140.84 120.6 140.84C120.6 140.84 120.6 140.88 120.6 140.91C120.6 142.22 120.6 142.97 120.63 143.98C120.64 144.41 120.64 144.81 120.69 145.22C120.34 145.16 119.95 145.13 119.59 145.13C119.26 145.13 118.76 145.17 118.45 145.22C118.57 143.94 118.55 142.65 118.55 139.88C118.55 137.75 118.55 136.47 118.45 135.66C119 135.7 119.5 135.73 119.8 135.73C120.58 135.73 121.36 135.66 122.13 135.66C122.58 135.66 124.85 135.66 124.85 138.1C124.85 139.74 123.59 140.41 122.88 140.52ZM120.6 140.07C120.69 140.09 120.82 140.09 120.96 140.09C121.42 140.09 122.7 140.09 122.7 138.25C122.7 136.68 121.8 136.6 121.09 136.6C120.93 136.6 120.78 136.6 120.61 136.63L120.6 140.07ZM129.04 145.22C128.65 145.16 128.32 145.13 127.92 145.13C127.53 145.13 127.14 145.16 126.74 145.22C126.86 144 126.86 140.9 126.86 140.23C126.86 138.81 126.85 137.01 126.76 135.66C127.09 135.7 127.48 135.73 127.93 135.73C128.44 135.73 128.88 135.68 129.06 135.66C128.97 137.22 128.94 139.06 128.94 140.64C128.94 141.94 128.94 144 129.04 145.22ZM132.37 136.83C131.78 136.83 130.98 136.84 130.05 136.97C130.11 136.73 130.11 136.5 130.11 136.26C130.11 136.05 130.1 135.84 130.05 135.66C130.7 135.73 131.94 135.77 133.42 135.77C134.97 135.77 135.97 135.73 136.78 135.66C136.74 135.9 136.71 136.11 136.71 136.32C136.71 136.53 136.75 136.81 136.78 136.97C136.05 136.86 135.25 136.83 134.54 136.83C134.53 137.44 134.53 138.38 134.53 139.43C134.53 140.23 134.51 141.96 134.51 142.88C134.51 143.7 134.53 144.45 134.6 145.22C134.24 145.16 133.72 145.13 133.37 145.13C133.01 145.13 132.59 145.17 132.26 145.22C132.38 144.57 132.38 142.84 132.38 142.08C132.38 140.34 132.38 138.5 132.37 136.83ZM140.12 145.22C139.73 145.16 139.4 145.13 138.98 145.13C138.6 145.13 138.2 145.16 137.81 145.22C137.94 144 137.94 140.9 137.94 140.23C137.94 138.81 137.93 137.01 137.82 135.66C138.17 135.7 138.54 135.73 138.99 135.73C139.5 135.73 139.96 135.68 140.12 135.66C140.05 137.22 140 139.06 140 140.64C140 141.94 140 144 140.12 145.22ZM146.52 145.4C143.76 145.4 141.74 143.75 141.74 140.5C141.74 137.59 143.46 135.47 146.6 135.47C149.27 135.47 151.42 137.06 151.42 140.23C151.42 143.77 149.03 145.4 146.52 145.4ZM146.63 136.44C144.73 136.44 144.01 138.41 144.01 140.56C144.01 143.31 145.23 144.42 146.52 144.42C148.1 144.42 149.15 142.91 149.15 140.27C149.15 138 148.25 136.44 146.63 136.44ZM159.57 138.87C159.57 138.62 159.51 136.35 159.4 135.66C159.6 135.7 159.9 135.73 160.1 135.73C160.32 135.73 160.55 135.7 160.77 135.66C160.59 136.83 160.55 140.72 160.55 142.25C160.55 143.23 160.55 144.24 160.65 145.22C160.38 145.17 160.16 145.13 159.91 145.13C159.64 145.13 159.42 145.16 159.19 145.22C158.79 144.6 158.64 144.42 157.31 142.68L154.13 138.7L154.13 142.16C154.13 142.77 154.22 144.63 154.28 145.22C154.05 145.17 153.83 145.13 153.6 145.13C153.35 145.13 153.18 145.17 152.96 145.22C153.14 142.68 153.14 142.08 153.14 139.8C153.14 137.32 153.14 136.63 153.05 135.66C153.33 135.69 153.62 135.73 153.89 135.73C154.13 135.73 154.38 135.69 154.62 135.66C155.84 137.41 158.52 140.73 159.57 142L159.57 138.87Z" />
			<path id="Path 3" class="shp2" d="M48.35 110.28L132.19 110.28" />
			<path id="Path 4" class="shp3" d="M205.72 110.28L141.64 110.28" />
			<path id="Path 5" class="shp4" d="M90.72 135.65L48.28 135.65M205.72 135.65L163.28 135.65" />
			<path id="Path 6" class="shp5" d="M128.1 43.79C129.65 32.49 133.03 22.73 137.54 14.94C139.04 12.35 145.82 1.97 148.69 5.24C150.27 7.04 147.95 9.96 145.01 13.68C138.27 22.2 132 31.05 128.1 43.79Z" />
			<path id="Path 7" class="shp6" d="M141.14 20.45C143.44 17.98 149.91 11.73 151.71 14.84C152.78 16.66 150.34 18.72 147.24 21.33C140.17 27.32 133.43 33.67 128.1 43.79C131.37 34.19 136.02 26.98 141.14 20.45Z" />
			<path id="Path 8" class="shp7" d="M143.67 25.83C146.54 23.91 151.92 20.87 152.88 23.59C153.53 25.41 151.06 26.73 147.94 28.42C140.98 32.19 134.24 36.33 128.1 43.79C132.62 35.97 137.99 30.6 143.67 25.83Z" />
			<path id="Path 9" class="shp8" d="M144.55 31.59C147.35 30.54 152.49 29.05 152.85 31.59C153.09 33.29 150.75 33.91 147.79 34.71C141.14 36.51 134.65 38.66 128.1 43.79C133.31 37.99 138.84 34.5 144.55 31.59Z" />
			<path id="Path 10" class="shp9" d="M122.52 49.09C129.22 43.38 136.24 39.7 142.92 37.92C145.13 37.34 154.46 35.43 154.49 39.18C154.5 41.23 151.63 41.51 147.98 41.87C139.62 42.69 131.36 44.01 122.52 49.09Z" />
			<path id="Path 11" class="shp10" d="M142.21 43.45C144.84 43.42 151.89 43.8 151.36 46.76C151.05 48.51 148.55 48.21 145.38 47.8C138.11 46.91 130.86 46.44 122.52 49.09C129.39 45.46 135.82 44.12 142.21 43.45Z" />
			<path id="Path 12" class="shp11" d="M140.96 48.22C143.64 48.9 148.39 50.47 147.56 52.7C147 54.16 144.87 53.41 142.15 52.45C136.09 50.31 129.98 48.54 122.52 49.09C129.21 47.3 135.15 47.49 140.96 48.22Z" />
			<path id="Path 13" class="shp12" d="M138.53 52.2C140.72 53.32 144.52 55.68 143.44 57.42C142.71 58.57 141.01 57.47 138.83 56.09C133.99 52.97 129.03 50.18 122.52 49.09C128.58 48.95 133.64 50.34 138.53 52.2Z" />
			<path id="Path 14" class="shp13" d="M135.88 55.39C137.58 56.88 140.48 59.78 139.2 61.05C138.36 61.89 137.08 60.55 135.45 58.84C131.79 55.05 127.99 51.49 122.52 49.09C127.83 50.32 131.97 52.68 135.88 55.39Z" />
			<path id="Path 15" class="shp14" d="M144 86.22C145.67 79.74 144.84 66.97 140.27 61.08C139.65 62.16 138.66 62.46 137.48 61.7C142.24 66.93 144.46 78.45 144 86.22Z" />
			<path id="Path 16" class="shp15" d="M144 86.22C135.78 75.12 113.97 80.59 112.3 59.86C117.79 75.57 138.6 72.16 144 86.22Z" />
			<path id="Path 17" fill-rule="evenodd" class="shp16" d="M111.9 64.36C108.89 59.03 103.97 53.34 101.99 52.83C97.92 51.78 91.8 52.06 84.02 54.75C88.46 51.39 97.74 50.56 102.94 49.77C104.73 47.33 109.05 43.91 111.99 43.38C116.31 42.62 120.07 45.09 124.29 46.3C117.92 46.81 114.53 47.58 112.09 50.49C109.05 55.34 111.22 59.4 111.9 64.36ZM107.34 48.93C107.34 49.41 107.67 49.78 108.11 49.78C108.53 49.78 108.87 49.41 108.87 48.93C108.87 48.47 108.53 48.09 108.11 48.09C107.67 48.09 107.34 48.47 107.34 48.93Z" />
			<path id="Path 18" class="shp17" d="M124.97 94.08C124.49 88.19 142.96 92.84 139.53 82.97C146.25 92.31 125.45 100.17 124.97 94.08Z" />
			<path id="Path 19" class="shp18" d="M124.54 102.96C123.81 96.93 144.19 98.16 141.46 84.68C148.58 96.57 125.47 110.72 124.54 102.96Z" />
			<path id="Path 20" class="shp19" d="M134.48 109.48C131.93 103.95 146.61 100.95 143.2 86.67C151.33 101.23 137.33 115.68 134.48 109.48Z" />
		</g>
	</g>
</svg>