<svg xmlns="http://www.w3.org/2000/svg" viewBox="0 0 476 300" width="476" height="300">
	<defs>
		<clipPath clipPathUnits="userSpaceOnUse" id="cp1">
			<path d="M0 -161L476 -161L476 455L0 455Z" />
		</clipPath>
		<linearGradient id="grd1" gradientUnits="userSpaceOnUse"  x1="280.811" y1="20.713" x2="236.944" y2="85.947">
			<stop offset="0" stop-color="#102694"  />
			<stop offset="0.18" stop-color="#102694"  />
			<stop offset="0.36" stop-color="#00b9f2"  />
			<stop offset="0.49" stop-color="#00ab4f"  />
			<stop offset="0.62" stop-color="#ff2e17"  />
			<stop offset="0.73" stop-color="#ff7d24"  />
			<stop offset="1" stop-color="#ffeb3d"  />
		</linearGradient>
		<linearGradient id="grd2" gradientUnits="userSpaceOnUse"  x1="280.413" y1="33.966" x2="242.96" y2="89.676">
			<stop offset="0" stop-color="#102694"  />
			<stop offset="0.18" stop-color="#102694"  />
			<stop offset="0.36" stop-color="#00b9f2"  />
			<stop offset="0.49" stop-color="#00ab4f"  />
			<stop offset="0.62" stop-color="#ff2e17"  />
			<stop offset="0.73" stop-color="#ff7d24"  />
			<stop offset="1" stop-color="#ffeb3d"  />
		</linearGradient>
		<linearGradient id="grd3" gradientUnits="userSpaceOnUse"  x1="278.685" y1="45.82" x2="247.075" y2="92.834">
			<stop offset="0" stop-color="#102694"  />
			<stop offset="0.18" stop-color="#102694"  />
			<stop offset="0.36" stop-color="#00b9f2"  />
			<stop offset="0.49" stop-color="#00ab4f"  />
			<stop offset="0.62" stop-color="#ff2e17"  />
			<stop offset="0.73" stop-color="#ff7d24"  />
			<stop offset="1" stop-color="#ffeb3d"  />
		</linearGradient>
		<linearGradient id="grd4" gradientUnits="userSpaceOnUse"  x1="275.852" y1="57.097" x2="250.262" y2="95.155">
			<stop offset="0" stop-color="#102694"  />
			<stop offset="0.18" stop-color="#102694"  />
			<stop offset="0.36" stop-color="#00b9f2"  />
			<stop offset="0.49" stop-color="#00ab4f"  />
			<stop offset="0.62" stop-color="#ff2e17"  />
			<stop offset="0.73" stop-color="#ff7d24"  />
			<stop offset="1" stop-color="#ffeb3d"  />
		</linearGradient>
		<linearGradient id="grd5" gradientUnits="userSpaceOnUse"  x1="273.559" y1="66.905" x2="245.529" y2="108.579">
			<stop offset="0" stop-color="#102694"  />
			<stop offset="0.18" stop-color="#102694"  />
			<stop offset="0.36" stop-color="#00b9f2"  />
			<stop offset="0.49" stop-color="#00ab4f"  />
			<stop offset="0.62" stop-color="#ff2e17"  />
			<stop offset="0.73" stop-color="#ff7d24"  />
			<stop offset="1" stop-color="#ffeb3d"  />
		</linearGradient>
		<linearGradient id="grd6" gradientUnits="userSpaceOnUse"  x1="268.162" y1="74.892" x2="244.221" y2="110.487">
			<stop offset="0" stop-color="#102694"  />
			<stop offset="0.18" stop-color="#102694"  />
			<stop offset="0.36" stop-color="#00b9f2"  />
			<stop offset="0.49" stop-color="#00ab4f"  />
			<stop offset="0.62" stop-color="#ff2e17"  />
			<stop offset="0.73" stop-color="#ff7d24"  />
			<stop offset="1" stop-color="#ffeb3d"  />
		</linearGradient>
		<linearGradient id="grd7" gradientUnits="userSpaceOnUse"  x1="261.682" y1="86.967" x2="243.288" y2="114.32">
			<stop offset="0" stop-color="#102694"  />
			<stop offset="0.18" stop-color="#102694"  />
			<stop offset="0.36" stop-color="#00b9f2"  />
			<stop offset="0.49" stop-color="#00ab4f"  />
			<stop offset="0.62" stop-color="#ff2e17"  />
			<stop offset="0.73" stop-color="#ff7d24"  />
			<stop offset="1" stop-color="#ffeb3d"  />
		</linearGradient>
		<linearGradient id="grd8" gradientUnits="userSpaceOnUse"  x1="258.369" y1="91.253" x2="238.775" y2="120.395">
			<stop offset="0" stop-color="#102694"  />
			<stop offset="0.18" stop-color="#102694"  />
			<stop offset="0.36" stop-color="#00b9f2"  />
			<stop offset="0.49" stop-color="#00ab4f"  />
			<stop offset="0.62" stop-color="#ff2e17"  />
			<stop offset="0.73" stop-color="#ff7d24"  />
			<stop offset="1" stop-color="#ffeb3d"  />
		</linearGradient>
		<linearGradient id="grd9" gradientUnits="userSpaceOnUse"  x1="254.886" y1="93.806" x2="234.483" y2="124.155">
			<stop offset="0" stop-color="#102694"  />
			<stop offset="0.18" stop-color="#102694"  />
			<stop offset="0.36" stop-color="#00b9f2"  />
			<stop offset="0.49" stop-color="#00ab4f"  />
			<stop offset="0.62" stop-color="#ff2e17"  />
			<stop offset="0.73" stop-color="#ff7d24"  />
			<stop offset="1" stop-color="#ffeb3d"  />
		</linearGradient>
		<linearGradient id="grd10" gradientUnits="userSpaceOnUse"  x1="275.088" y1="127.49" x2="252.419" y2="161.21">
			<stop offset="0" stop-color="#102694"  />
			<stop offset="0.18" stop-color="#102694"  />
			<stop offset="0.36" stop-color="#00b9f2"  />
			<stop offset="0.49" stop-color="#00ab4f"  />
			<stop offset="0.62" stop-color="#ff2e17"  />
			<stop offset="0.73" stop-color="#ff7d24"  />
			<stop offset="1" stop-color="#ffeb3d"  />
		</linearGradient>
		<linearGradient id="grd11" gradientUnits="userSpaceOnUse"  x1="261.535" y1="111.396" x2="218.758" y2="175.018">
			<stop offset="0" stop-color="#102694"  />
			<stop offset="0.18" stop-color="#102694"  />
			<stop offset="0.36" stop-color="#00b9f2"  />
			<stop offset="0.49" stop-color="#00ab4f"  />
			<stop offset="0.62" stop-color="#ff2e17"  />
			<stop offset="0.73" stop-color="#ff7d24"  />
			<stop offset="1" stop-color="#ffeb3d"  />
		</linearGradient>
		<linearGradient id="grd12" gradientUnits="userSpaceOnUse"  x1="222.555" y1="66.744" x2="167.82" y2="148.141">
			<stop offset="0" stop-color="#102694"  />
			<stop offset="0.18" stop-color="#102694"  />
			<stop offset="0.36" stop-color="#00b9f2"  />
			<stop offset="0.49" stop-color="#00ab4f"  />
			<stop offset="0.62" stop-color="#ff2e17"  />
			<stop offset="0.73" stop-color="#ff7d24"  />
			<stop offset="1" stop-color="#ffeb3d"  />
		</linearGradient>
		<linearGradient id="grd13" gradientUnits="userSpaceOnUse"  x1="253.999" y1="159.252" x2="237.428" y2="183.89">
			<stop offset="0" stop-color="#102694"  />
			<stop offset="0.18" stop-color="#102694"  />
			<stop offset="0.36" stop-color="#00b9f2"  />
			<stop offset="0.49" stop-color="#00ab4f"  />
			<stop offset="0.62" stop-color="#ff2e17"  />
			<stop offset="0.73" stop-color="#ff7d24"  />
			<stop offset="1" stop-color="#ffeb3d"  />
		</linearGradient>
		<linearGradient id="grd14" gradientUnits="userSpaceOnUse"  x1="258.399" y1="163.425" x2="235.576" y2="197.366">
			<stop offset="0" stop-color="#102694"  />
			<stop offset="0.18" stop-color="#102694"  />
			<stop offset="0.36" stop-color="#00b9f2"  />
			<stop offset="0.49" stop-color="#00ab4f"  />
			<stop offset="0.62" stop-color="#ff2e17"  />
			<stop offset="0.73" stop-color="#ff7d24"  />
			<stop offset="1" stop-color="#ffeb3d"  />
		</linearGradient>
		<linearGradient id="grd15" gradientUnits="userSpaceOnUse"  x1="268.56" y1="175.939" x2="252.204" y2="200.269">
			<stop offset="0" stop-color="#102694"  />
			<stop offset="0.18" stop-color="#102694"  />
			<stop offset="0.36" stop-color="#00b9f2"  />
			<stop offset="0.49" stop-color="#00ab4f"  />
			<stop offset="0.62" stop-color="#ff2e17"  />
			<stop offset="0.73" stop-color="#ff7d24"  />
			<stop offset="1" stop-color="#ffeb3d"  />
		</linearGradient>
	</defs>
	<style>
		tspan { white-space:pre }
		.shp0 { fill: #595b61 } 
		.shp1 { fill: #6f7176 } 
		.shp2 { fill: none;stroke: #595b61;stroke-linecap:round;stroke-linejoin:round;stroke-width: 1.64 } 
		.shp3 { fill: none;stroke: #595b61;stroke-linecap:round;stroke-linejoin:round;stroke-width: 1.644 } 
		.shp4 { fill: none;stroke: #595b61;stroke-linecap:round;stroke-linejoin:round;stroke-width: 1.632 } 
		.shp5 { fill: url(#grd1) } 
		.shp6 { fill: url(#grd2) } 
		.shp7 { fill: url(#grd3) } 
		.shp8 { fill: url(#grd4) } 
		.shp9 { fill: url(#grd5) } 
		.shp10 { fill: url(#grd6) } 
		.shp11 { fill: url(#grd7) } 
		.shp12 { fill: url(#grd8) } 
		.shp13 { fill: url(#grd9) } 
		.shp14 { fill: url(#grd10) } 
		.shp15 { fill: url(#grd11) } 
		.shp16 { fill: url(#grd12) } 
		.shp17 { fill: url(#grd13) } 
		.shp18 { fill: url(#grd14) } 
		.shp19 { fill: url(#grd15) } 
	</style>
	<g id="Page 1" clip-path="url(#cp1)">
		<path id="Path 1" fill-rule="evenodd" class="shp0" d="M90.81 229.46C90.81 227.05 90.61 224.34 90.5 222.78C91.66 222.96 92.86 223.04 94.13 223.04C95.72 223.04 97.07 222.87 97.65 222.78C97.38 226.79 97.38 229.46 97.38 234.77C99.43 234.85 101.09 234.9 102.83 234.9C104.5 234.9 106.24 234.9 108.44 234.77L108.44 229.25C108.44 227.48 108.29 224.46 108.13 222.78C108.94 222.87 110.61 223.04 111.8 223.04C113.12 223.04 114.78 222.87 115.36 222.78C115.01 226.49 115.01 235.2 115.01 239.46C115.01 244.68 115.01 249.12 115.4 252.7C114.2 252.52 113 252.44 111.84 252.44C110.57 252.44 109.29 252.52 108.05 252.7C108.21 251.62 108.44 249.94 108.44 246.79L108.44 238.43C106.78 238.34 104.88 238.3 102.79 238.3C100.78 238.3 98.77 238.34 97.38 238.43L97.38 247.52C97.38 249.33 97.5 251.57 97.61 252.7C96.92 252.61 95.49 252.44 94.09 252.44C93.24 252.44 91.62 252.52 90.46 252.7C90.65 250.54 90.81 248.56 90.81 244.94L90.81 229.46ZM121.36 230.28C121.36 227.83 121.2 224.29 121.01 222.78C122.52 222.96 123.72 223.04 124.76 223.04C125.96 223.04 127.27 223 128.32 222.78C127.93 226.23 127.81 233.82 127.81 237.52C127.81 242.44 128.2 244.72 128.9 246.19C129.83 248.13 131.95 249.38 134.27 249.38C136.28 249.38 139.3 248.39 140.34 244.29C140.89 242.18 140.92 239.55 140.92 235.71L140.92 230.54C140.92 226.96 140.89 225.89 140.58 222.78C141.27 222.96 142.28 223.04 143.05 223.04C143.86 223.04 144.75 222.91 145.33 222.78C144.75 226.49 144.6 234.68 144.6 238.86C144.6 243.08 144.4 248.3 139.57 251.49C137.75 252.7 135.51 253.17 133 253.17C129.36 253.17 125.65 252.39 123.6 249.59C121.36 246.53 121.36 243.43 121.36 241.53L121.36 230.28ZM180.29 242.48C180.64 245.89 181.1 249.33 181.68 252.7C180.45 252.48 179.44 252.39 178.17 252.39C176.46 252.39 175.57 252.52 174.45 252.7C174.41 250.76 174.34 248.47 173.83 243.3C173.68 241.62 172.98 234.29 172.87 232.78C170.2 238.86 169.93 239.64 167.34 246.4C165.83 250.37 165.64 250.93 165.06 252.7C164.78 252.65 164.28 252.57 163.66 252.57C163.01 252.57 162.58 252.61 162.23 252.7C161.85 251.27 161.42 249.76 160.03 246.19C158.29 241.75 156.51 237.31 154.69 232.91C154.15 237.14 153.65 241.4 153.34 245.63C153.18 247.87 152.99 250.2 152.99 252.7C152.29 252.52 151.6 252.44 150.9 252.44C150.24 252.44 149.47 252.57 148.74 252.7C149.08 251.01 149.39 249.38 149.63 247.61L152.29 227.78C152.53 226.15 152.68 224.46 152.72 222.78C153.49 222.91 154.77 223.04 155.54 223.04C156.35 223.04 157.36 222.87 158.09 222.78C158.95 226.02 163.78 238.95 165.44 242.78C167.61 237.7 169.7 232.57 171.63 227.4C172.56 224.94 172.79 224.12 173.18 222.78C174.1 223 175.03 223.04 175.96 223.04C176.97 223.04 177.55 222.96 178.36 222.78C178.47 224.42 178.63 226.84 178.78 228.39L180.29 242.48ZM216.8 242.48C217.15 245.89 217.61 249.33 218.19 252.7C216.95 252.48 215.95 252.39 214.67 252.39C212.97 252.39 212.08 252.52 210.96 252.7C210.92 250.76 210.84 248.47 210.34 243.3C210.18 241.62 209.49 234.29 209.37 232.78C206.7 238.86 206.43 239.64 203.84 246.4C202.33 250.37 202.14 250.93 201.56 252.7C201.29 252.65 200.79 252.57 200.17 252.57C199.51 252.57 199.09 252.61 198.74 252.7C198.35 251.27 197.93 249.76 196.53 246.19C194.79 241.75 193.01 237.31 191.2 232.91C190.66 237.14 190.15 241.4 189.84 245.63C189.69 247.87 189.5 250.2 189.5 252.7C188.8 252.52 188.1 252.44 187.41 252.44C186.75 252.44 185.98 252.57 185.24 252.7C185.59 251.01 185.9 249.38 186.13 247.61L188.8 227.78C189.03 226.15 189.19 224.46 189.23 222.78C190 222.91 191.27 223.04 192.05 223.04C192.86 223.04 193.87 222.87 194.6 222.78C195.45 226.02 200.29 238.95 201.95 242.78C204.11 237.7 206.2 232.57 208.14 227.4C209.06 224.94 209.3 224.12 209.68 222.78C210.61 223 211.54 223.04 212.47 223.04C213.47 223.04 214.05 222.96 214.86 222.78C214.98 224.42 215.14 226.84 215.29 228.39L216.8 242.48ZM230.06 252.7C228.86 252.52 227.82 252.44 226.54 252.44C225.34 252.44 224.11 252.52 222.91 252.7C223.29 248.9 223.29 239.2 223.29 237.14C223.29 232.65 223.26 227.05 222.95 222.78C223.99 222.96 225.19 223.04 226.58 223.04C228.17 223.04 229.56 222.87 230.1 222.78C229.83 227.7 229.71 233.47 229.71 238.39C229.71 242.48 229.71 248.9 230.06 252.7ZM256.47 232.87C256.47 232.05 256.28 224.98 255.97 222.78C256.59 222.96 257.52 223.04 258.14 223.04C258.83 223.04 259.53 222.96 260.23 222.78C259.68 226.49 259.53 238.6 259.53 243.39C259.53 246.49 259.53 249.64 259.84 252.7C259.03 252.57 258.33 252.44 257.56 252.44C256.75 252.44 256.01 252.52 255.31 252.7C254.08 250.8 253.61 250.2 249.48 244.76L239.58 232.35L239.58 243.13C239.58 245.07 239.88 250.89 240.04 252.7C239.34 252.57 238.65 252.44 237.95 252.44C237.18 252.44 236.67 252.57 235.94 252.7C236.52 244.76 236.52 242.87 236.52 235.76C236.52 228 236.52 225.84 236.25 222.78C237.14 222.91 237.99 223.04 238.84 223.04C239.61 223.04 240.39 222.91 241.12 222.78C244.91 228.3 253.23 238.69 256.47 242.65L256.47 232.87ZM288.46 229.98C287.88 228.86 286.02 225.28 281.3 225.28C276.12 225.28 271.87 229.46 271.87 237.83C271.87 245.2 275.08 250.24 280.57 250.24C281.8 250.24 283.04 250.02 284.24 249.64C284.28 248.34 284.32 247.09 284.32 245.8C284.32 243.52 284.16 241.23 283.89 238.95C285.13 239.16 286.37 239.2 287.64 239.2C288.8 239.2 289.69 239.16 291.01 238.95C290.85 239.81 290.66 242.05 290.66 244.16C290.66 245.33 290.66 248.51 290.93 251.1C287.22 252.13 283.43 253.21 279.64 253.21C270.86 253.21 264.83 247.05 264.83 238.04C264.83 230.2 269.47 222.22 280.92 222.22C284.01 222.22 287.61 222.91 290.47 224.72C289.58 226.96 289.27 228.6 289.07 229.85L288.46 229.98ZM308.22 236.75C309.76 237.05 314.83 238 314.83 244.2C314.83 249.42 310.85 252.7 305.24 252.7C304.2 252.7 301.1 252.44 299.48 252.44C298.24 252.44 296.92 252.57 295.61 252.7C295.84 249.12 295.92 244.46 295.92 240.71C295.92 236.58 295.92 232.4 295.8 228.26C295.73 225.5 295.57 224.08 295.46 222.78C296.35 223 297.58 223.04 298.78 223.04C300.68 223.04 303.23 222.78 305.74 222.78C310.38 222.78 314.13 225.2 314.13 229.85C314.13 234.94 309.88 236.1 308.22 236.53L308.22 236.75ZM302.3 235.54C302.57 235.58 302.8 235.58 303.07 235.58C305.32 235.58 307.6 234.25 307.6 230.46C307.6 227.09 306.17 225.59 303.19 225.59C302.96 225.59 302.73 225.59 302.34 225.63C302.34 226.15 302.3 228.65 302.3 229.21L302.3 235.54ZM302.3 238.39C302.3 245.41 302.3 246.83 302.38 249.64C302.73 249.68 303.11 249.72 303.54 249.72C306.67 249.72 307.98 247.14 307.98 243.9C307.98 239.38 305.9 238.39 302.3 238.39ZM326.74 252.7C325.54 252.52 324.5 252.44 323.22 252.44C322.02 252.44 320.79 252.52 319.59 252.7C319.97 248.9 319.97 239.2 319.97 237.14C319.97 232.65 319.93 227.05 319.63 222.78C320.67 222.96 321.87 223.04 323.26 223.04C324.85 223.04 326.24 222.87 326.78 222.78C326.51 227.7 326.39 233.47 326.39 238.39C326.39 242.48 326.39 248.9 326.74 252.7ZM346.27 238L352.26 248.56C352.88 249.64 354.27 251.75 355.05 252.44L354.93 252.7C353.62 252.48 352.26 252.44 350.91 252.44C349.25 252.44 348.32 252.52 346.85 252.7C346.7 252.31 346.04 250.58 344.61 248.17L339.35 239.08C339.31 239.03 339.27 238.99 339.19 238.99C339.15 238.99 339.15 239.12 339.15 239.25C339.15 243.3 339.19 245.67 339.27 248.86C339.31 250.15 339.31 251.45 339.46 252.7C338.38 252.52 337.14 252.44 336.02 252.44C335.02 252.44 333.47 252.57 332.5 252.7C332.85 248.73 332.81 244.68 332.81 236.02C332.81 229.34 332.81 225.33 332.5 222.78C334.2 222.96 335.75 223.04 336.72 223.04C339.12 223.04 341.55 222.78 343.95 222.78C345.34 222.78 352.38 222.78 352.38 230.46C352.38 235.58 348.47 237.7 346.27 238ZM339.15 236.62C339.46 236.66 339.85 236.66 340.31 236.66C341.75 236.66 345.73 236.66 345.73 230.93C345.73 226.02 342.91 225.76 340.7 225.76C340.2 225.76 339.73 225.76 339.23 225.84L339.15 236.62ZM358.34 231.1C358.34 228.34 358.22 225.54 357.95 222.78C359.15 222.96 360.35 223.04 361.55 223.04C364.52 223.04 367.46 222.78 370.44 222.78C377.83 222.78 383.59 227.61 383.59 237.18C383.59 245.58 378.87 252.7 369.09 252.7C367.73 252.7 363.79 252.44 362.74 252.44C362.05 252.44 359.77 252.48 357.95 252.7C358.18 249.85 358.34 247.01 358.34 244.16L358.34 231.1ZM364.75 246.1C364.75 247.18 364.79 248.3 364.83 249.38C365.3 249.46 366.11 249.59 367.38 249.59C369.55 249.59 372.1 249.12 373.92 246.96C376.39 243.99 376.63 238.73 376.63 237.14C376.63 234.51 376.2 230.33 373.69 227.87C371.68 225.93 369.63 225.89 367.96 225.89C365.99 225.89 365.33 225.93 364.87 225.97C364.87 226.88 364.75 230.24 364.75 231.71L364.75 246.1Z" />
		<path id="Path 2" fill-rule="evenodd" class="shp1" d="M185.16 267.47C185.16 266.97 185.04 262.71 184.85 261.38C185.23 261.49 185.79 261.54 186.16 261.54C186.58 261.54 187 261.49 187.42 261.38C187.09 263.62 187 270.93 187 273.81C187 275.69 187 277.58 187.19 279.43C186.7 279.35 186.28 279.27 185.81 279.27C185.32 279.27 184.88 279.33 184.46 279.43C183.71 278.29 183.43 277.92 180.93 274.65L174.96 267.16L174.96 273.66C174.96 274.83 175.15 278.34 175.24 279.43C174.82 279.35 174.4 279.27 173.98 279.27C173.51 279.27 173.21 279.35 172.77 279.43C173.12 274.65 173.12 273.5 173.12 269.21C173.12 264.53 173.12 263.23 172.95 261.38C173.49 261.46 174 261.54 174.52 261.54C174.98 261.54 175.45 261.46 175.89 261.38C178.18 264.71 183.2 270.98 185.16 273.37L185.16 267.47ZM191.18 265.91C191.18 264.43 191.08 262.29 190.97 261.38C191.88 261.49 192.6 261.54 193.23 261.54C193.95 261.54 194.75 261.51 195.38 261.38C195.14 263.46 195.07 268.04 195.07 270.28C195.07 273.24 195.31 274.62 195.73 275.5C196.29 276.67 197.57 277.43 198.97 277.43C200.18 277.43 202 276.83 202.63 274.36C202.96 273.09 202.98 271.5 202.98 269.18L202.98 266.06C202.98 263.91 202.96 263.26 202.77 261.38C203.19 261.49 203.8 261.54 204.27 261.54C204.76 261.54 205.29 261.46 205.64 261.38C205.29 263.62 205.2 268.56 205.2 271.08C205.2 273.63 205.08 276.78 202.17 278.7C201.07 279.43 199.72 279.72 198.2 279.72C196.01 279.72 193.77 279.25 192.53 277.56C191.18 275.71 191.18 273.84 191.18 272.7L191.18 265.91ZM211.76 263.62C210.64 263.62 209.14 263.65 207.42 263.85C207.51 263.41 207.53 262.97 207.53 262.53C207.53 262.14 207.49 261.75 207.42 261.38C208.61 261.54 210.96 261.59 213.72 261.59C216.61 261.59 218.5 261.54 220.02 261.38C219.95 261.85 219.9 262.24 219.9 262.63C219.9 263.05 219.97 263.57 220.02 263.85C218.64 263.67 217.15 263.62 215.84 263.62C215.79 264.76 215.79 266.53 215.79 268.51C215.79 270.04 215.77 273.29 215.77 275.01C215.77 276.57 215.82 278 215.93 279.43C215.26 279.33 214.28 279.27 213.62 279.27C212.97 279.27 212.18 279.35 211.55 279.43C211.78 278.21 211.78 274.96 211.78 273.5C211.78 270.23 211.78 266.74 211.76 263.62ZM230.28 270.56L233.9 276.93C234.27 277.58 235.11 278.86 235.58 279.27L235.51 279.43C234.72 279.3 233.9 279.27 233.08 279.27C232.08 279.27 231.52 279.33 230.63 279.43C230.54 279.2 230.14 278.16 229.28 276.7L226.11 271.21C226.08 271.19 226.06 271.16 226.01 271.16C225.99 271.16 225.99 271.24 225.99 271.32C225.99 273.76 226.01 275.19 226.06 277.12C226.08 277.9 226.08 278.68 226.18 279.43C225.52 279.33 224.78 279.27 224.1 279.27C223.49 279.27 222.56 279.35 221.98 279.43C222.19 277.04 222.16 274.59 222.16 269.37C222.16 265.34 222.16 262.92 221.98 261.38C223 261.49 223.94 261.54 224.52 261.54C225.97 261.54 227.44 261.38 228.88 261.38C229.72 261.38 233.97 261.38 233.97 266.01C233.97 269.11 231.61 270.38 230.28 270.56ZM225.99 269.73C226.18 269.76 226.41 269.76 226.69 269.76C227.55 269.76 229.96 269.76 229.96 266.3C229.96 263.33 228.25 263.18 226.92 263.18C226.62 263.18 226.34 263.18 226.04 263.23L225.99 269.73ZM241.83 279.43C241.11 279.33 240.48 279.27 239.71 279.27C238.99 279.27 238.24 279.33 237.52 279.43C237.75 277.14 237.75 271.29 237.75 270.04C237.75 267.34 237.73 263.96 237.54 261.38C238.17 261.49 238.89 261.54 239.73 261.54C240.69 261.54 241.53 261.43 241.86 261.38C241.69 264.35 241.62 267.83 241.62 270.8C241.62 273.27 241.62 277.14 241.83 279.43ZM248.06 263.62C246.94 263.62 245.45 263.65 243.72 263.85C243.82 263.41 243.84 262.97 243.84 262.53C243.84 262.14 243.79 261.75 243.72 261.38C244.91 261.54 247.27 261.59 250.02 261.59C252.92 261.59 254.81 261.54 256.32 261.38C256.25 261.85 256.21 262.24 256.21 262.63C256.21 263.05 256.28 263.57 256.32 263.85C254.95 263.67 253.45 263.62 252.15 263.62C252.1 264.76 252.1 266.53 252.1 268.51C252.1 270.04 252.08 273.29 252.08 275.01C252.08 276.57 252.12 278 252.24 279.43C251.56 279.33 250.58 279.27 249.93 279.27C249.28 279.27 248.48 279.35 247.85 279.43C248.09 278.21 248.09 274.96 248.09 273.5C248.09 270.23 248.09 266.74 248.06 263.62ZM262.58 279.43C261.86 279.33 261.22 279.27 260.46 279.27C259.73 279.27 258.98 279.33 258.26 279.43C258.5 277.14 258.5 271.29 258.5 270.04C258.5 267.34 258.47 263.96 258.28 261.38C258.92 261.49 259.64 261.54 260.48 261.54C261.44 261.54 262.28 261.43 262.6 261.38C262.44 264.35 262.37 267.83 262.37 270.8C262.37 273.27 262.37 277.14 262.58 279.43ZM274.6 279.77C269.39 279.77 265.64 276.65 265.64 270.54C265.64 265.05 268.86 261.02 274.74 261.02C279.75 261.02 283.77 264.04 283.77 270.04C283.77 276.73 279.29 279.77 274.6 279.77ZM274.78 262.87C271.24 262.87 269.88 266.58 269.88 270.67C269.88 275.84 272.17 277.92 274.6 277.92C277.56 277.92 279.52 275.06 279.52 270.09C279.52 265.8 277.82 262.87 274.78 262.87ZM299.03 267.47C299.03 266.97 298.91 262.71 298.72 261.38C299.1 261.49 299.66 261.54 300.03 261.54C300.45 261.54 300.87 261.49 301.29 261.38C300.96 263.62 300.87 270.93 300.87 273.81C300.87 275.69 300.87 277.58 301.06 279.43C300.57 279.35 300.15 279.27 299.68 279.27C299.19 279.27 298.75 279.33 298.33 279.43C297.58 278.29 297.3 277.92 294.8 274.65L288.83 267.16L288.83 273.66C288.83 274.83 289.02 278.34 289.11 279.43C288.69 279.35 288.27 279.27 287.85 279.27C287.38 279.27 287.08 279.35 286.64 279.43C286.99 274.65 286.99 273.5 286.99 269.21C286.99 264.53 286.99 263.23 286.82 261.38C287.36 261.46 287.87 261.54 288.39 261.54C288.85 261.54 289.32 261.46 289.76 261.38C292.05 264.71 297.07 270.98 299.03 273.37L299.03 267.47Z" />
		<path id="Path 3" class="shp2" d="M90.61 213.48L247.72 213.48" />
		<path id="Path 4" class="shp3" d="M385.54 213.48L265.45 213.48" />
		<path id="Path 5" class="shp4" d="M170 261.37L90.46 261.37M385.54 261.37L306 261.37" />
		<path id="Path 6" class="shp5" d="M240.06 87.96C242.96 66.65 249.3 48.21 257.76 33.51C260.56 28.63 273.25 9.02 278.65 15.21C281.6 18.6 277.26 24.12 271.75 31.14C259.13 47.23 247.39 63.94 240.06 87.96Z" />
		<path id="Path 7" class="shp6" d="M264.51 43.92C268.8 39.25 280.93 27.46 284.3 33.31C286.3 36.78 281.73 40.65 275.94 45.58C262.67 56.88 250.05 68.87 240.06 87.96C246.21 69.85 254.89 56.26 264.51 43.92Z" />
		<path id="Path 8" class="shp7" d="M269.25 54.06C274.61 50.45 284.69 44.72 286.5 49.86C287.7 53.28 283.1 55.78 277.25 58.97C264.19 66.09 251.57 73.9 240.06 87.96C248.53 73.2 258.59 63.07 269.25 54.06Z" />
		<path id="Path 9" class="shp8" d="M270.9 64.94C276.12 62.96 285.76 60.15 286.45 64.96C286.9 68.15 282.52 69.33 276.94 70.85C264.51 74.22 252.34 78.29 240.06 87.96C249.84 77.05 260.21 70.45 270.9 64.94Z" />
		<path id="Path 10" class="shp9" d="M229.6 97.98C242.17 87.19 255.32 80.27 267.82 76.91C271.97 75.79 289.47 72.2 289.52 79.28C289.54 83.15 284.16 83.68 277.31 84.36C261.65 85.91 246.18 88.38 229.6 97.98Z" />
		<path id="Path 11" class="shp10" d="M266.52 87.35C271.44 87.3 284.63 87.98 283.65 93.59C283.07 96.9 278.39 96.31 272.45 95.57C258.83 93.87 245.24 92.99 229.6 97.98C242.47 91.14 254.53 88.58 266.52 87.35Z" />
		<path id="Path 12" class="shp11" d="M264.16 96.36C269.18 97.61 278.07 100.59 276.52 104.78C275.49 107.57 271.49 106.14 266.4 104.33C255.04 100.29 243.58 96.93 229.6 97.98C242.14 94.6 253.26 94.96 264.16 96.36Z" />
		<path id="Path 13" class="shp12" d="M259.6 103.85C263.7 105.98 270.85 110.41 268.8 113.69C267.45 115.87 264.25 113.8 260.17 111.17C251.09 105.31 241.8 100.02 229.6 97.98C240.95 97.71 250.46 100.35 259.6 103.85Z" />
		<path id="Path 14" class="shp13" d="M254.66 109.89C257.84 112.68 263.26 118.15 260.88 120.55C259.3 122.14 256.89 119.61 253.82 116.4C246.98 109.23 239.86 102.52 229.6 97.98C239.54 100.31 247.33 104.77 254.66 109.89Z" />
		<path id="Path 15" class="shp14" d="M269.84 168.08C272.97 155.82 271.44 131.74 262.86 120.62C261.72 122.65 259.85 123.22 257.63 121.78C266.57 131.67 270.73 153.4 269.84 168.08Z" />
		<path id="Path 16" class="shp15" d="M269.84 168.08C254.46 147.12 213.57 157.44 210.45 118.33C220.75 147.97 259.76 141.54 269.84 168.08Z" />
		<path id="Path 17" fill-rule="evenodd" class="shp16" d="M209.68 126.8C204.07 116.72 194.84 105.99 191.14 105.04C183.49 103.07 172.05 103.61 157.44 108.67C165.78 102.33 183.17 100.76 192.92 99.26C196.27 94.65 204.38 88.2 209.86 87.22C217.97 85.76 225.01 90.44 232.93 92.72C220.99 93.68 214.62 95.12 210.05 100.62C204.36 109.76 208.42 117.43 209.68 126.8ZM201.15 97.69C201.15 98.58 201.79 99.29 202.59 99.29C203.38 99.29 204.02 98.58 204.02 97.69C204.02 96.81 203.38 96.09 202.59 96.09C201.79 96.09 201.15 96.81 201.15 97.69Z" />
		<path id="Path 18" class="shp17" d="M234.19 182.9C233.3 171.78 267.92 180.56 261.48 161.92C274.08 179.56 235.11 194.41 234.19 182.9Z" />
		<path id="Path 19" class="shp18" d="M233.38 199.67C232.03 188.3 270.21 190.62 265.09 165.16C278.44 187.61 235.12 214.32 233.38 199.67Z" />
		<path id="Path 20" class="shp19" d="M252.01 211.98C247.24 201.53 274.75 195.87 268.38 168.91C283.59 196.4 257.35 223.67 252.01 211.98Z" />
	</g>
</svg>