<svg xmlns="http://www.w3.org/2000/svg" viewBox="0 0 169 100" width="169" height="100">
	<defs>
		<clipPath clipPathUnits="userSpaceOnUse" id="cp1">
			<path d="M0 -59L169 -59L169 159L0 159Z" />
		</clipPath>
		<linearGradient id="grd1" gradientUnits="userSpaceOnUse"  x1="99.7" y1="5.377" x2="84.125" y2="28.537">
			<stop offset="0" stop-color="#102694"  />
			<stop offset="0.18" stop-color="#102694"  />
			<stop offset="0.36" stop-color="#00b9f2"  />
			<stop offset="0.49" stop-color="#00ab4f"  />
			<stop offset="0.62" stop-color="#ff2e17"  />
			<stop offset="0.73" stop-color="#ff7d24"  />
			<stop offset="1" stop-color="#ffeb3d"  />
		</linearGradient>
		<linearGradient id="grd2" gradientUnits="userSpaceOnUse"  x1="99.523" y1="10.118" x2="86.296" y2="29.793">
			<stop offset="0" stop-color="#102694"  />
			<stop offset="0.18" stop-color="#102694"  />
			<stop offset="0.36" stop-color="#00b9f2"  />
			<stop offset="0.49" stop-color="#00ab4f"  />
			<stop offset="0.62" stop-color="#ff2e17"  />
			<stop offset="0.73" stop-color="#ff7d24"  />
			<stop offset="1" stop-color="#ffeb3d"  />
		</linearGradient>
		<linearGradient id="grd3" gradientUnits="userSpaceOnUse"  x1="98.915" y1="14.305" x2="87.752" y2="30.909">
			<stop offset="0" stop-color="#102694"  />
			<stop offset="0.18" stop-color="#102694"  />
			<stop offset="0.36" stop-color="#00b9f2"  />
			<stop offset="0.49" stop-color="#00ab4f"  />
			<stop offset="0.62" stop-color="#ff2e17"  />
			<stop offset="0.73" stop-color="#ff7d24"  />
			<stop offset="1" stop-color="#ffeb3d"  />
		</linearGradient>
		<linearGradient id="grd4" gradientUnits="userSpaceOnUse"  x1="97.915" y1="18.288" x2="88.878" y2="31.728">
			<stop offset="0" stop-color="#102694"  />
			<stop offset="0.18" stop-color="#102694"  />
			<stop offset="0.36" stop-color="#00b9f2"  />
			<stop offset="0.49" stop-color="#00ab4f"  />
			<stop offset="0.62" stop-color="#ff2e17"  />
			<stop offset="0.73" stop-color="#ff7d24"  />
			<stop offset="1" stop-color="#ffeb3d"  />
		</linearGradient>
		<linearGradient id="grd5" gradientUnits="userSpaceOnUse"  x1="97.099" y1="21.751" x2="87.199" y2="36.469">
			<stop offset="0" stop-color="#102694"  />
			<stop offset="0.18" stop-color="#102694"  />
			<stop offset="0.36" stop-color="#00b9f2"  />
			<stop offset="0.49" stop-color="#00ab4f"  />
			<stop offset="0.62" stop-color="#ff2e17"  />
			<stop offset="0.73" stop-color="#ff7d24"  />
			<stop offset="1" stop-color="#ffeb3d"  />
		</linearGradient>
		<linearGradient id="grd6" gradientUnits="userSpaceOnUse"  x1="95.186" y1="24.572" x2="86.731" y2="37.143">
			<stop offset="0" stop-color="#102694"  />
			<stop offset="0.18" stop-color="#102694"  />
			<stop offset="0.36" stop-color="#00b9f2"  />
			<stop offset="0.49" stop-color="#00ab4f"  />
			<stop offset="0.62" stop-color="#ff2e17"  />
			<stop offset="0.73" stop-color="#ff7d24"  />
			<stop offset="1" stop-color="#ffeb3d"  />
		</linearGradient>
		<linearGradient id="grd7" gradientUnits="userSpaceOnUse"  x1="92.891" y1="28.837" x2="86.395" y2="38.497">
			<stop offset="0" stop-color="#102694"  />
			<stop offset="0.18" stop-color="#102694"  />
			<stop offset="0.36" stop-color="#00b9f2"  />
			<stop offset="0.49" stop-color="#00ab4f"  />
			<stop offset="0.62" stop-color="#ff2e17"  />
			<stop offset="0.73" stop-color="#ff7d24"  />
			<stop offset="1" stop-color="#ffeb3d"  />
		</linearGradient>
		<linearGradient id="grd8" gradientUnits="userSpaceOnUse"  x1="91.713" y1="30.35" x2="84.793" y2="40.642">
			<stop offset="0" stop-color="#102694"  />
			<stop offset="0.18" stop-color="#102694"  />
			<stop offset="0.36" stop-color="#00b9f2"  />
			<stop offset="0.49" stop-color="#00ab4f"  />
			<stop offset="0.62" stop-color="#ff2e17"  />
			<stop offset="0.73" stop-color="#ff7d24"  />
			<stop offset="1" stop-color="#ffeb3d"  />
		</linearGradient>
		<linearGradient id="grd9" gradientUnits="userSpaceOnUse"  x1="90.476" y1="31.252" x2="83.27" y2="41.97">
			<stop offset="0" stop-color="#102694"  />
			<stop offset="0.18" stop-color="#102694"  />
			<stop offset="0.36" stop-color="#00b9f2"  />
			<stop offset="0.49" stop-color="#00ab4f"  />
			<stop offset="0.62" stop-color="#ff2e17"  />
			<stop offset="0.73" stop-color="#ff7d24"  />
			<stop offset="1" stop-color="#ffeb3d"  />
		</linearGradient>
		<linearGradient id="grd10" gradientUnits="userSpaceOnUse"  x1="97.668" y1="43.116" x2="89.619" y2="55.088">
			<stop offset="0" stop-color="#102694"  />
			<stop offset="0.18" stop-color="#102694"  />
			<stop offset="0.36" stop-color="#00b9f2"  />
			<stop offset="0.49" stop-color="#00ab4f"  />
			<stop offset="0.62" stop-color="#ff2e17"  />
			<stop offset="0.73" stop-color="#ff7d24"  />
			<stop offset="1" stop-color="#ffeb3d"  />
		</linearGradient>
		<linearGradient id="grd11" gradientUnits="userSpaceOnUse"  x1="92.816" y1="37.464" x2="77.708" y2="59.934">
			<stop offset="0" stop-color="#102694"  />
			<stop offset="0.18" stop-color="#102694"  />
			<stop offset="0.36" stop-color="#00b9f2"  />
			<stop offset="0.49" stop-color="#00ab4f"  />
			<stop offset="0.62" stop-color="#ff2e17"  />
			<stop offset="0.73" stop-color="#ff7d24"  />
			<stop offset="1" stop-color="#ffeb3d"  />
		</linearGradient>
		<linearGradient id="grd12" gradientUnits="userSpaceOnUse"  x1="78.965" y1="21.694" x2="59.634" y2="50.441">
			<stop offset="0" stop-color="#102694"  />
			<stop offset="0.18" stop-color="#102694"  />
			<stop offset="0.36" stop-color="#00b9f2"  />
			<stop offset="0.49" stop-color="#00ab4f"  />
			<stop offset="0.62" stop-color="#ff2e17"  />
			<stop offset="0.73" stop-color="#ff7d24"  />
			<stop offset="1" stop-color="#ffeb3d"  />
		</linearGradient>
		<linearGradient id="grd13" gradientUnits="userSpaceOnUse"  x1="90.165" y1="54.365" x2="84.313" y2="63.067">
			<stop offset="0" stop-color="#102694"  />
			<stop offset="0.18" stop-color="#102694"  />
			<stop offset="0.36" stop-color="#00b9f2"  />
			<stop offset="0.49" stop-color="#00ab4f"  />
			<stop offset="0.62" stop-color="#ff2e17"  />
			<stop offset="0.73" stop-color="#ff7d24"  />
			<stop offset="1" stop-color="#ffeb3d"  />
		</linearGradient>
		<linearGradient id="grd14" gradientUnits="userSpaceOnUse"  x1="91.721" y1="55.839" x2="83.661" y2="67.826">
			<stop offset="0" stop-color="#102694"  />
			<stop offset="0.18" stop-color="#102694"  />
			<stop offset="0.36" stop-color="#00b9f2"  />
			<stop offset="0.49" stop-color="#00ab4f"  />
			<stop offset="0.62" stop-color="#ff2e17"  />
			<stop offset="0.73" stop-color="#ff7d24"  />
			<stop offset="1" stop-color="#ffeb3d"  />
		</linearGradient>
		<linearGradient id="grd15" gradientUnits="userSpaceOnUse"  x1="95.35" y1="60.236" x2="89.543" y2="68.874">
			<stop offset="0" stop-color="#102694"  />
			<stop offset="0.18" stop-color="#102694"  />
			<stop offset="0.36" stop-color="#00b9f2"  />
			<stop offset="0.49" stop-color="#00ab4f"  />
			<stop offset="0.62" stop-color="#ff2e17"  />
			<stop offset="0.73" stop-color="#ff7d24"  />
			<stop offset="1" stop-color="#ffeb3d"  />
		</linearGradient>
	</defs>
	<style>
		tspan { white-space:pre }
		.shp0 { fill: #595b61 } 
		.shp1 { fill: #6f7176 } 
		.shp2 { fill: none;stroke: #595b61;stroke-linecap:round;stroke-linejoin:round;stroke-width: 0.581 } 
		.shp3 { fill: none;stroke: #595b61;stroke-linecap:round;stroke-linejoin:round;stroke-width: 0.582 } 
		.shp4 { fill: none;stroke: #595b61;stroke-linecap:round;stroke-linejoin:round;stroke-width: 0.578 } 
		.shp5 { fill: url(#grd1) } 
		.shp6 { fill: url(#grd2) } 
		.shp7 { fill: url(#grd3) } 
		.shp8 { fill: url(#grd4) } 
		.shp9 { fill: url(#grd5) } 
		.shp10 { fill: url(#grd6) } 
		.shp11 { fill: url(#grd7) } 
		.shp12 { fill: url(#grd8) } 
		.shp13 { fill: url(#grd9) } 
		.shp14 { fill: url(#grd10) } 
		.shp15 { fill: url(#grd11) } 
		.shp16 { fill: url(#grd12) } 
		.shp17 { fill: url(#grd13) } 
		.shp18 { fill: url(#grd14) } 
		.shp19 { fill: url(#grd15) } 
	</style>
	<g id="Page 1" clip-path="url(#cp1)">
		<path id="Path 1" fill-rule="evenodd" class="shp0" d="M32.24 79.16C32.24 78.31 32.17 77.35 32.13 76.8C32.54 76.86 32.97 76.89 33.42 76.89C33.98 76.89 34.46 76.83 34.67 76.8C34.57 78.22 34.57 79.16 34.57 81.03C35.3 81.07 35.89 81.08 36.51 81.08C37.1 81.08 37.72 81.08 38.5 81.03L38.5 79.09C38.5 78.46 38.45 77.4 38.39 76.8C38.68 76.83 39.27 76.89 39.7 76.89C40.16 76.89 40.75 76.83 40.96 76.8C40.83 78.11 40.83 81.19 40.83 82.69C40.83 84.54 40.83 86.1 40.97 87.37C40.55 87.31 40.12 87.28 39.71 87.28C39.26 87.28 38.8 87.31 38.36 87.37C38.42 86.99 38.5 86.39 38.5 85.28L38.5 82.33C37.91 82.3 37.24 82.28 36.5 82.28C35.78 82.28 35.07 82.3 34.57 82.33L34.57 85.54C34.57 86.18 34.62 86.97 34.66 87.37C34.41 87.34 33.9 87.28 33.41 87.28C33.1 87.28 32.53 87.31 32.12 87.37C32.19 86.61 32.24 85.91 32.24 84.63L32.24 79.16ZM43.09 79.45C43.09 78.58 43.03 77.34 42.96 76.8C43.5 76.86 43.92 76.89 44.29 76.89C44.72 76.89 45.19 76.88 45.56 76.8C45.42 78.02 45.38 80.7 45.38 82.01C45.38 83.74 45.52 84.55 45.76 85.07C46.09 85.75 46.85 86.19 47.67 86.19C48.39 86.19 49.46 85.84 49.83 84.4C50.02 83.65 50.03 82.72 50.03 81.37L50.03 79.54C50.03 78.28 50.02 77.9 49.91 76.8C50.16 76.86 50.51 76.89 50.79 76.89C51.08 76.89 51.39 76.85 51.6 76.8C51.39 78.11 51.34 81 51.34 82.48C51.34 83.97 51.27 85.81 49.55 86.94C48.91 87.37 48.11 87.53 47.22 87.53C45.93 87.53 44.61 87.26 43.88 86.27C43.09 85.19 43.09 84.09 43.09 83.42L43.09 79.45ZM64.01 83.76C64.13 84.96 64.3 86.18 64.51 87.37C64.07 87.29 63.71 87.26 63.26 87.26C62.65 87.26 62.34 87.31 61.94 87.37C61.92 86.68 61.9 85.87 61.72 84.05C61.66 83.45 61.42 80.87 61.38 80.33C60.43 82.48 60.33 82.75 59.41 85.14C58.88 86.54 58.81 86.74 58.6 87.37C58.51 87.35 58.33 87.32 58.11 87.32C57.87 87.32 57.72 87.34 57.6 87.37C57.46 86.86 57.31 86.33 56.82 85.07C56.2 83.5 55.57 81.93 54.92 80.38C54.73 81.87 54.55 83.38 54.44 84.87C54.39 85.66 54.32 86.48 54.32 87.37C54.07 87.31 53.82 87.28 53.58 87.28C53.34 87.28 53.07 87.32 52.81 87.37C52.93 86.77 53.04 86.19 53.12 85.57L54.07 78.57C54.15 77.99 54.21 77.4 54.22 76.8C54.5 76.85 54.95 76.89 55.22 76.89C55.51 76.89 55.87 76.83 56.13 76.8C56.43 77.94 58.15 82.51 58.74 83.87C59.51 82.07 60.25 80.26 60.94 78.43C61.27 77.56 61.35 77.27 61.48 76.8C61.81 76.88 62.14 76.89 62.47 76.89C62.83 76.89 63.04 76.86 63.32 76.8C63.37 77.38 63.42 78.23 63.48 78.78L64.01 83.76ZM76.97 83.76C77.1 84.96 77.26 86.18 77.47 87.37C77.03 87.29 76.67 87.26 76.22 87.26C75.61 87.26 75.3 87.31 74.9 87.37C74.89 86.68 74.86 85.87 74.68 84.05C74.62 83.45 74.38 80.87 74.34 80.33C73.39 82.48 73.29 82.75 72.37 85.14C71.84 86.54 71.77 86.74 71.56 87.37C71.47 87.35 71.29 87.32 71.07 87.32C70.84 87.32 70.68 87.34 70.56 87.37C70.42 86.86 70.27 86.33 69.78 85.07C69.16 83.5 68.53 81.93 67.88 80.38C67.69 81.87 67.51 83.38 67.4 84.87C67.35 85.66 67.28 86.48 67.28 87.37C67.03 87.31 66.78 87.28 66.54 87.28C66.3 87.28 66.03 87.32 65.77 87.37C65.89 86.77 66 86.19 66.08 85.57L67.03 78.57C67.11 77.99 67.17 77.4 67.18 76.8C67.46 76.85 67.91 76.89 68.19 76.89C68.47 76.89 68.83 76.83 69.09 76.8C69.39 77.94 71.11 82.51 71.7 83.87C72.47 82.07 73.21 80.26 73.9 78.43C74.23 77.56 74.31 77.27 74.45 76.8C74.78 76.88 75.11 76.89 75.43 76.89C75.79 76.89 76 76.86 76.29 76.8C76.33 77.38 76.38 78.23 76.44 78.78L76.97 83.76ZM81.68 87.37C81.26 87.31 80.89 87.28 80.43 87.28C80.01 87.28 79.57 87.31 79.14 87.37C79.28 86.03 79.28 82.6 79.28 81.87C79.28 80.29 79.27 78.31 79.16 76.8C79.53 76.86 79.95 76.89 80.45 76.89C81.01 76.89 81.5 76.83 81.7 76.8C81.6 78.54 81.56 80.58 81.56 82.31C81.56 83.76 81.56 86.03 81.68 87.37ZM91.06 80.36C91.06 80.08 90.99 77.58 90.88 76.8C91.1 76.86 91.43 76.89 91.65 76.89C91.9 76.89 92.14 76.86 92.39 76.8C92.2 78.11 92.14 82.39 92.14 84.08C92.14 85.17 92.14 86.29 92.25 87.37C91.97 87.32 91.72 87.28 91.44 87.28C91.16 87.28 90.89 87.31 90.65 87.37C90.21 86.7 90.04 86.48 88.57 84.57L85.06 80.18L85.06 83.99C85.06 84.67 85.17 86.73 85.22 87.37C84.98 87.32 84.73 87.28 84.48 87.28C84.21 87.28 84.03 87.32 83.77 87.37C83.97 84.57 83.97 83.9 83.97 81.38C83.97 78.64 83.97 77.88 83.88 76.8C84.19 76.85 84.5 76.89 84.8 76.89C85.07 76.89 85.35 76.85 85.61 76.8C86.95 78.75 89.91 82.42 91.06 83.82L91.06 80.36ZM102.41 79.34C102.21 78.95 101.55 77.69 99.87 77.69C98.03 77.69 96.52 79.16 96.52 82.12C96.52 84.72 97.66 86.5 99.61 86.5C100.05 86.5 100.49 86.42 100.92 86.29C100.93 85.83 100.94 85.39 100.94 84.93C100.94 84.12 100.89 83.32 100.79 82.51C101.23 82.59 101.67 82.6 102.13 82.6C102.54 82.6 102.85 82.59 103.32 82.51C103.27 82.82 103.2 83.61 103.2 84.35C103.2 84.76 103.2 85.89 103.29 86.8C101.97 87.17 100.63 87.55 99.28 87.55C96.17 87.55 94.02 85.37 94.02 82.19C94.02 79.42 95.67 76.61 99.74 76.61C100.84 76.61 102.11 76.85 103.13 77.49C102.81 78.28 102.7 78.86 102.63 79.3L102.41 79.34ZM109.43 81.73C109.98 81.84 111.78 82.18 111.78 84.37C111.78 86.21 110.36 87.37 108.37 87.37C108 87.37 106.9 87.28 106.33 87.28C105.89 87.28 105.42 87.32 104.95 87.37C105.04 86.1 105.06 84.46 105.06 83.14C105.06 81.67 105.06 80.2 105.02 78.74C105 77.76 104.94 77.26 104.9 76.8C105.21 76.88 105.65 76.89 106.08 76.89C106.75 76.89 107.66 76.8 108.55 76.8C110.2 76.8 111.53 77.66 111.53 79.3C111.53 81.1 110.02 81.51 109.43 81.66L109.43 81.73ZM107.33 81.31C107.43 81.32 107.51 81.32 107.6 81.32C108.4 81.32 109.21 80.85 109.21 79.51C109.21 78.33 108.7 77.79 107.65 77.79C107.56 77.79 107.48 77.79 107.34 77.81C107.34 77.99 107.33 78.87 107.33 79.07L107.33 81.31ZM107.33 82.31C107.33 84.79 107.33 85.3 107.36 86.29C107.48 86.3 107.62 86.32 107.77 86.32C108.88 86.32 109.35 85.4 109.35 84.26C109.35 82.66 108.61 82.31 107.33 82.31ZM116.01 87.37C115.58 87.31 115.21 87.28 114.76 87.28C114.33 87.28 113.89 87.31 113.47 87.37C113.6 86.03 113.6 82.6 113.6 81.87C113.6 80.29 113.59 78.31 113.48 76.8C113.85 76.86 114.28 76.89 114.77 76.89C115.33 76.89 115.83 76.83 116.02 76.8C115.92 78.54 115.88 80.58 115.88 82.31C115.88 83.76 115.88 86.03 116.01 87.37ZM122.94 82.18L125.07 85.91C125.29 86.29 125.78 87.03 126.06 87.28L126.02 87.37C125.55 87.29 125.07 87.28 124.59 87.28C124 87.28 123.67 87.31 123.15 87.37C123.09 87.23 122.86 86.62 122.35 85.77L120.48 82.56C120.47 82.54 120.46 82.53 120.43 82.53C120.41 82.53 120.41 82.57 120.41 82.62C120.41 84.05 120.43 84.89 120.46 86.01C120.47 86.47 120.47 86.93 120.52 87.37C120.14 87.31 119.7 87.28 119.3 87.28C118.94 87.28 118.4 87.32 118.05 87.37C118.18 85.97 118.16 84.54 118.16 81.48C118.16 79.12 118.16 77.7 118.05 76.8C118.66 76.86 119.21 76.89 119.55 76.89C120.4 76.89 121.27 76.8 122.12 76.8C122.61 76.8 125.11 76.8 125.11 79.51C125.11 81.32 123.72 82.07 122.94 82.18ZM120.41 81.69C120.52 81.7 120.66 81.7 120.83 81.7C121.33 81.7 122.75 81.7 122.75 79.68C122.75 77.94 121.75 77.85 120.96 77.85C120.78 77.85 120.62 77.85 120.44 77.88L120.41 81.69ZM127.22 79.74C127.22 78.77 127.18 77.78 127.09 76.8C127.51 76.86 127.94 76.89 128.36 76.89C129.42 76.89 130.46 76.8 131.52 76.8C134.14 76.8 136.19 78.51 136.19 81.89C136.19 84.86 134.51 87.37 131.04 87.37C130.56 87.37 129.16 87.28 128.79 87.28C128.54 87.28 127.73 87.29 127.09 87.37C127.17 86.36 127.22 85.36 127.22 84.35L127.22 79.74ZM129.5 85.04C129.5 85.42 129.52 85.81 129.53 86.19C129.7 86.23 129.98 86.27 130.44 86.27C131.21 86.27 132.11 86.1 132.76 85.34C133.64 84.29 133.72 82.43 133.72 81.87C133.72 80.94 133.57 79.47 132.67 78.6C131.96 77.91 131.23 77.9 130.64 77.9C129.94 77.9 129.71 77.91 129.54 77.93C129.54 78.25 129.5 79.44 129.5 79.95L129.5 85.04Z" />
		<path id="Path 2" fill-rule="evenodd" class="shp1" d="M65.74 92.58C65.74 92.41 65.7 90.9 65.63 90.44C65.76 90.47 65.96 90.49 66.09 90.49C66.24 90.49 66.39 90.47 66.54 90.44C66.43 91.22 66.39 93.81 66.39 94.83C66.39 95.49 66.39 96.16 66.46 96.81C66.29 96.78 66.14 96.75 65.97 96.75C65.8 96.75 65.64 96.77 65.49 96.81C65.22 96.4 65.13 96.28 64.24 95.12L62.12 92.47L62.12 94.77C62.12 95.18 62.18 96.42 62.22 96.81C62.07 96.78 61.92 96.75 61.77 96.75C61.6 96.75 61.5 96.78 61.34 96.81C61.46 95.12 61.46 94.72 61.46 93.2C61.46 91.55 61.46 91.09 61.41 90.44C61.6 90.46 61.78 90.49 61.96 90.49C62.13 90.49 62.29 90.46 62.45 90.44C63.26 91.61 65.04 93.82 65.74 94.67L65.74 92.58ZM67.88 92.03C67.88 91.51 67.84 90.76 67.8 90.44C68.12 90.47 68.38 90.49 68.6 90.49C68.86 90.49 69.14 90.48 69.37 90.44C69.28 91.17 69.26 92.79 69.26 93.58C69.26 94.62 69.34 95.11 69.49 95.42C69.69 95.84 70.15 96.1 70.64 96.1C71.07 96.1 71.72 95.89 71.94 95.02C72.06 94.57 72.07 94.01 72.07 93.19L72.07 92.09C72.07 91.33 72.06 91.1 71.99 90.44C72.14 90.47 72.36 90.49 72.52 90.49C72.7 90.49 72.89 90.46 73.01 90.44C72.89 91.22 72.85 92.97 72.85 93.86C72.85 94.76 72.81 95.87 71.78 96.55C71.39 96.81 70.91 96.91 70.37 96.91C69.59 96.91 68.8 96.74 68.36 96.15C67.88 95.5 67.88 94.83 67.88 94.43L67.88 92.03ZM75.18 91.22C74.79 91.22 74.26 91.23 73.64 91.31C73.68 91.15 73.68 91 73.68 90.84C73.68 90.7 73.67 90.56 73.64 90.44C74.06 90.49 74.9 90.51 75.88 90.51C76.91 90.51 77.58 90.49 78.12 90.44C78.09 90.6 78.07 90.74 78.07 90.88C78.07 91.02 78.1 91.21 78.12 91.31C77.63 91.24 77.1 91.22 76.63 91.22C76.62 91.63 76.62 92.25 76.62 92.95C76.62 93.49 76.61 94.64 76.61 95.25C76.61 95.8 76.62 96.3 76.67 96.81C76.43 96.77 76.08 96.75 75.85 96.75C75.61 96.75 75.33 96.78 75.11 96.81C75.19 96.38 75.19 95.23 75.19 94.72C75.19 93.56 75.19 92.33 75.18 91.22ZM81.76 93.68L83.04 95.93C83.18 96.16 83.48 96.61 83.64 96.75L83.62 96.81C83.33 96.76 83.04 96.75 82.75 96.75C82.4 96.75 82.2 96.77 81.89 96.81C81.85 96.73 81.71 96.36 81.4 95.84L80.28 93.91C80.27 93.9 80.26 93.89 80.24 93.89C80.24 93.89 80.24 93.92 80.24 93.94C80.24 94.81 80.24 95.31 80.26 95.99C80.27 96.27 80.27 96.54 80.3 96.81C80.07 96.77 79.81 96.75 79.57 96.75C79.35 96.75 79.02 96.78 78.81 96.81C78.89 95.96 78.88 95.1 78.88 93.25C78.88 91.83 78.88 90.98 78.81 90.44C79.18 90.47 79.51 90.49 79.71 90.49C80.23 90.49 80.75 90.44 81.26 90.44C81.56 90.44 83.07 90.44 83.07 92.07C83.07 93.16 82.23 93.61 81.76 93.68ZM80.24 93.38C80.3 93.39 80.39 93.39 80.48 93.39C80.79 93.39 81.64 93.39 81.64 92.17C81.64 91.12 81.04 91.07 80.57 91.07C80.46 91.07 80.36 91.07 80.25 91.09L80.24 93.38ZM85.86 96.81C85.6 96.77 85.38 96.75 85.11 96.75C84.85 96.75 84.59 96.77 84.33 96.81C84.41 96 84.41 93.93 84.41 93.49C84.41 92.54 84.4 91.34 84.34 90.44C84.56 90.47 84.82 90.49 85.12 90.49C85.46 90.49 85.75 90.45 85.87 90.44C85.81 91.48 85.79 92.71 85.79 93.76C85.79 94.63 85.79 96 85.86 96.81ZM88.07 91.22C87.68 91.22 87.15 91.23 86.53 91.31C86.57 91.15 86.57 91 86.57 90.84C86.57 90.7 86.56 90.56 86.53 90.44C86.96 90.49 87.79 90.51 88.77 90.51C89.8 90.51 90.47 90.49 91.01 90.44C90.98 90.6 90.96 90.74 90.96 90.88C90.96 91.02 90.99 91.21 91.01 91.31C90.52 91.24 89.99 91.22 89.52 91.22C89.51 91.63 89.51 92.25 89.51 92.95C89.51 93.49 89.5 94.64 89.5 95.25C89.5 95.8 89.51 96.3 89.56 96.81C89.32 96.77 88.97 96.75 88.74 96.75C88.5 96.75 88.22 96.78 88 96.81C88.08 96.38 88.08 95.23 88.08 94.72C88.08 93.56 88.08 92.33 88.07 91.22ZM93.23 96.81C92.97 96.77 92.75 96.75 92.47 96.75C92.22 96.75 91.95 96.77 91.69 96.81C91.78 96 91.78 93.93 91.78 93.49C91.78 92.54 91.77 91.34 91.7 90.44C91.93 90.47 92.18 90.49 92.48 90.49C92.82 90.49 93.12 90.45 93.23 90.44C93.18 91.48 93.15 92.71 93.15 93.76C93.15 94.63 93.15 96 93.23 96.81ZM97.49 96.93C95.65 96.93 94.31 95.83 94.31 93.67C94.31 91.73 95.45 90.31 97.54 90.31C99.32 90.31 100.75 91.37 100.75 93.49C100.75 95.85 99.16 96.93 97.49 96.93ZM97.56 90.96C96.3 90.96 95.82 92.27 95.82 93.71C95.82 95.54 96.63 96.28 97.49 96.28C98.54 96.28 99.24 95.27 99.24 93.51C99.24 92 98.64 90.96 97.56 90.96ZM106.17 92.58C106.17 92.41 106.13 90.9 106.06 90.44C106.19 90.47 106.39 90.49 106.52 90.49C106.67 90.49 106.82 90.47 106.97 90.44C106.85 91.22 106.82 93.81 106.82 94.83C106.82 95.49 106.82 96.16 106.89 96.81C106.71 96.78 106.56 96.75 106.4 96.75C106.22 96.75 106.07 96.77 105.92 96.81C105.65 96.4 105.55 96.28 104.67 95.12L102.55 92.47L102.55 94.77C102.55 95.18 102.61 96.42 102.65 96.81C102.5 96.78 102.35 96.75 102.2 96.75C102.03 96.75 101.92 96.78 101.77 96.81C101.89 95.12 101.89 94.72 101.89 93.2C101.89 91.55 101.89 91.09 101.83 90.44C102.02 90.46 102.21 90.49 102.39 90.49C102.55 90.49 102.72 90.46 102.88 90.44C103.69 91.61 105.47 93.82 106.17 94.67L106.17 92.58Z" />
		<path id="Path 3" class="shp2" d="M32.17 73.52L87.95 73.52" />
		<path id="Path 4" class="shp3" d="M136.88 73.52L94.24 73.52" />
		<path id="Path 5" class="shp4" d="M60.36 90.43L32.12 90.43M136.88 90.43L108.64 90.43" />
		<path id="Path 6" class="shp5" d="M85.23 29.19C86.26 21.66 88.51 15.15 91.51 9.96C92.51 8.23 97.02 1.31 98.93 3.49C99.98 4.69 98.44 6.64 96.48 9.12C92 14.8 87.83 20.7 85.23 29.19Z" />
		<path id="Path 7" class="shp6" d="M93.91 13.63C95.44 11.99 99.74 7.82 100.94 9.89C101.65 11.11 100.03 12.48 97.97 14.22C93.26 18.21 88.78 22.45 85.23 29.19C87.41 22.79 90.5 17.99 93.91 13.63Z" />
		<path id="Path 8" class="shp7" d="M95.59 17.22C97.5 15.94 101.08 13.91 101.72 15.73C102.15 16.94 100.51 17.82 98.43 18.95C93.8 21.46 89.32 24.22 85.23 29.19C88.24 23.98 91.81 20.4 95.59 17.22Z" />
		<path id="Path 9" class="shp8" d="M96.18 21.06C98.04 20.36 101.46 19.37 101.7 21.06C101.86 22.19 100.3 22.61 98.33 23.14C93.91 24.34 89.59 25.77 85.23 29.19C88.7 25.33 92.38 23 96.18 21.06Z" />
		<path id="Path 10" class="shp9" d="M81.52 32.73C85.98 28.92 90.65 26.47 95.09 25.28C96.56 24.89 102.77 23.62 102.79 26.12C102.8 27.49 100.89 27.67 98.46 27.91C92.9 28.46 87.4 29.34 81.52 32.73Z" />
		<path id="Path 11" class="shp10" d="M94.62 28.97C96.37 28.95 101.06 29.2 100.71 31.17C100.5 32.34 98.84 32.14 96.73 31.87C91.89 31.27 87.07 30.96 81.52 32.73C86.09 30.31 90.37 29.41 94.62 28.97Z" />
		<path id="Path 12" class="shp11" d="M93.79 32.15C95.57 32.6 98.73 33.65 98.18 35.13C97.81 36.11 96.39 35.61 94.58 34.97C90.55 33.54 86.48 32.36 81.52 32.73C85.97 31.53 89.92 31.66 93.79 32.15Z" />
		<path id="Path 13" class="shp12" d="M92.17 34.8C93.63 35.55 96.16 37.12 95.44 38.28C94.95 39.05 93.82 38.31 92.37 37.39C89.15 35.31 85.85 33.45 81.52 32.73C85.55 32.63 88.92 33.56 92.17 34.8Z" />
		<path id="Path 14" class="shp13" d="M90.41 36.93C91.54 37.92 93.47 39.85 92.62 40.7C92.06 41.26 91.21 40.37 90.12 39.23C87.69 36.7 85.16 34.33 81.52 32.73C85.05 33.55 87.81 35.12 90.41 36.93Z" />
		<path id="Path 15" class="shp14" d="M95.81 57.48C96.92 53.16 96.37 44.65 93.33 40.72C92.92 41.44 92.26 41.64 91.47 41.13C94.64 44.62 96.12 52.3 95.81 57.48Z" />
		<path id="Path 16" class="shp15" d="M95.81 57.48C90.34 50.08 75.83 53.73 74.72 39.91C78.37 50.38 92.22 48.11 95.81 57.48Z" />
		<path id="Path 17" fill-rule="evenodd" class="shp16" d="M74.45 42.91C72.45 39.35 69.18 35.56 67.86 35.22C65.15 34.52 61.08 34.71 55.9 36.5C58.86 34.26 65.03 33.71 68.49 33.18C69.68 31.55 72.56 29.27 74.51 28.92C77.39 28.41 79.89 30.06 82.7 30.87C78.46 31.21 76.2 31.72 74.58 33.66C72.56 36.89 74 39.6 74.45 42.91ZM71.42 32.62C71.42 32.94 71.64 33.19 71.93 33.19C72.21 33.19 72.44 32.94 72.44 32.62C72.44 32.31 72.21 32.06 71.93 32.06C71.64 32.06 71.42 32.31 71.42 32.62Z" />
		<path id="Path 18" class="shp17" d="M83.15 62.72C82.83 58.79 95.12 61.89 92.84 55.31C97.31 61.54 83.47 66.78 83.15 62.72Z" />
		<path id="Path 19" class="shp18" d="M82.86 68.64C82.38 64.62 95.94 65.44 94.12 56.45C98.86 64.38 83.48 73.81 82.86 68.64Z" />
		<path id="Path 20" class="shp19" d="M89.48 72.99C87.78 69.3 97.55 67.3 95.28 57.78C100.69 67.49 91.37 77.12 89.48 72.99Z" />
	</g>
</svg>